<?xml version="1.0" encoding="utf-8"?>
<!-- Generator: Adobe Illustrator 24.3.0, SVG Export Plug-In . SVG Version: 6.00 Build 0)  -->
<svg version="1.1" id="Layer_1" xmlns="http://www.w3.org/2000/svg" xmlns:xlink="http://www.w3.org/1999/xlink" x="0px" y="0px"
	 viewBox="0 0 462.87 131.36" style="enable-background:new 0 0 462.87 131.36;" xml:space="preserve">
<style type="text/css">
	.st0{fill:#2C3F84;}
	.st1{fill:#C63138;}
	.st2{clip-path:url(#SVGID_2_);fill:#FFFFFF;}
</style>
<rect class="st0" width="462.87" height="131.36"/>
<rect x="25.21" y="22.02" class="st1" width="29.06" height="20.82"/>
<rect x="25.21" y="48.11" class="st1" width="29.06" height="57.58"/>
<rect x="58.38" y="9.74" class="st0" width="390.72" height="108.74"/>
<g>
	<defs>
		<rect id="SVGID_1_" x="13.77" y="9.74" width="435.33" height="108.74"/>
	</defs>
	<clipPath id="SVGID_2_">
		<use xlink:href="#SVGID_1_"  style="overflow:visible;"/>
	</clipPath>
	<path class="st2" d="M209.36,46.95c-9.09,0-16.19,2.93-20.98,7.95c-4.79,5.01-7.22,12.04-7.22,20.06c0,8.02,2.43,15.06,7.22,20.11
		c4.79,5.04,11.89,8,20.98,7.99h0.03c9.07,0,16.14-2.96,20.9-7.99c4.76-5.04,7.17-12.09,7.17-20.11c0-8.02-2.4-15.05-7.17-20.06
		C225.53,49.88,218.45,46.94,209.36,46.95 M216.95,86.64c-1.55,2.91-3.76,4.57-7.58,4.61c-3.77-0.03-6.02-1.7-7.6-4.61
		c-1.55-2.92-2.21-7.13-2.2-11.77c-0.01-4.64,0.62-8.95,2.17-11.97c1.58-3.02,3.82-4.76,7.62-4.79c3.8,0.03,6.02,1.77,7.58,4.79
		c1.52,3.01,2.13,7.33,2.13,11.98C219.07,79.5,218.46,83.72,216.95,86.64 M181.85,47.78c-0.16-0.25-0.42-0.41-0.71-0.44
		c-1.69-0.2-4.84-0.39-7.47-0.39c-11.63,0-19.4,1.45-25.48,3.89c-0.37,0.15-0.62,0.51-0.62,0.92v48.97c0,0.26,0.11,0.52,0.29,0.7
		c0.19,0.18,0.44,0.29,0.7,0.29h16.13c0.26,0,0.52-0.11,0.7-0.29c0.19-0.19,0.29-0.44,0.29-0.7V58.84c1.27-0.42,2.98-0.64,4.81-0.64
		c2.37,0,4.97,0.37,7.16,1.09c0.25,0.08,0.53,0.06,0.76-0.06c0.24-0.12,0.41-0.34,0.49-0.59l3.05-10.02
		C182.05,48.33,182.01,48.02,181.85,47.78 M429.6,54.43l5.26-6.64c0.33-0.42,0.27-1.02-0.13-1.37l-3.15-2.67
		c-0.21-0.17-0.47-0.26-0.74-0.23c-0.27,0.03-0.51,0.16-0.68,0.38l-5.39,6.86c-4.24-2.41-9.42-3.8-15.6-3.8
		c-9.09,0-16.19,2.93-20.99,7.95c-4.78,5.01-7.22,12.04-7.21,20.06c0,8.35,2.62,15.64,7.76,20.71l-5.34,6.64
		c-0.35,0.42-0.28,1.04,0.14,1.38l3.15,2.58c0.17,0.15,0.4,0.22,0.63,0.22c0.03,0,0.06,0,0.1-0.01c0.26-0.02,0.5-0.15,0.67-0.36
		l5.48-6.78c4.25,2.41,9.44,3.72,15.62,3.71c9.08,0.01,16.17-2.95,20.93-7.99c4.77-5.04,7.17-12.09,7.17-20.11
		C437.27,66.62,434.74,59.48,429.6,54.43 M398.03,74.86c-0.01-4.97,0.72-9.56,2.48-12.77c1.77-3.21,4.36-5.11,8.67-5.14
		c3.61,0.02,5.89,1.37,7.63,3.66l-17.9,22.35C398.33,80.52,398.03,77.75,398.03,74.86 M417.79,87.44c-1.75,3.1-4.3,4.92-8.62,4.95
		c-3.45-0.02-5.72-1.14-7.43-3.2l17.74-22.17c0.49,2.39,0.73,5.05,0.72,7.84C420.21,79.83,419.51,84.32,417.79,87.44 M373.36,75.73
		c-3.54-3.37-8.6-4.88-12.65-6.52c-2.03-0.8-3.8-1.65-4.98-2.63c-1.18-1-1.79-2.03-1.8-3.56c0-1.25,0.58-2.39,1.77-3.3
		c1.18-0.9,3-1.53,5.36-1.53c4.03-0.01,7.63,1.56,9.3,2.61c0.24,0.15,0.53,0.19,0.81,0.12c0.27-0.08,0.5-0.27,0.62-0.53l3.91-8.21
		c0.23-0.49,0.04-1.06-0.44-1.31c-4.8-2.46-10.16-3.93-17.83-3.93c-6.45,0-11.81,1.95-15.58,5.05c-3.77,3.09-5.94,7.36-5.93,11.89
		c-0.01,4.24,1.55,7.31,3.84,9.46c3.44,3.23,8.34,4.59,12.25,6.16c1.95,0.78,3.65,1.6,4.78,2.6c1.13,1.01,1.73,2.08,1.75,3.74
		c0,1.34-0.74,2.62-2.12,3.64c-1.37,1.01-3.34,1.68-5.58,1.67c-4.26,0.01-8.96-1.51-11.11-2.9c-0.25-0.16-0.54-0.2-0.82-0.11
		c-0.28,0.08-0.5,0.29-0.62,0.55l-4.01,9.17c-0.21,0.46-0.02,1.02,0.43,1.26c3.86,2.12,10.9,3.93,18.42,3.94
		c7.34,0,13.35-1.98,17.57-5.18c4.22-3.19,6.63-7.64,6.62-12.42C377.33,81.14,375.73,77.98,373.36,75.73 M323.85,52.1
		c-3.81-3.19-9.45-5.15-16.83-5.15c-9.25,0-15.52,2.3-19.71,5.11c-3.73-2.9-9.39-5.11-19.04-5.11c-10.02,0-17.79,1.45-24.31,3.88
		c-0.39,0.14-0.64,0.52-0.64,0.93v48.97c0,0.26,0.11,0.52,0.29,0.7c0.19,0.18,0.44,0.29,0.7,0.29h16.13c0.26,0,0.52-0.11,0.7-0.29
		c0.18-0.19,0.29-0.44,0.29-0.7V58.88c1.78-0.52,3.97-0.88,6.94-0.88c3.1,0,5.39,0.69,6.85,1.78c1.45,1.1,2.17,2.55,2.18,4.48v36.47
		c0,0.26,0.11,0.52,0.29,0.7c0.18,0.18,0.44,0.29,0.7,0.29h16.14c0.26,0,0.51-0.11,0.7-0.29c0.18-0.19,0.29-0.44,0.29-0.7V60.27
		c2.06-1.5,4.65-2.36,7.7-2.37c3.03,0,5.08,0.81,6.37,1.97c1.29,1.16,1.9,2.72,1.9,4.49v36.37c0,0.26,0.11,0.52,0.29,0.7
		c0.18,0.18,0.44,0.29,0.7,0.29h16.14c0.26,0,0.52-0.11,0.7-0.29c0.19-0.19,0.29-0.44,0.29-0.7V64.36
		C329.6,59.7,327.67,55.28,323.85,52.1 M145.1,22.24H71.74c-1.23,0-2.22,1-2.22,2.22c0,0.09,0.02,0.17,0.03,0.26l0.14,0.54
		c0.06,0.17,0.08,0.23,0.04,0.16l5.91,22.1c0.03-0.07,0.04-0.06,0.04,0.06c0,0.04,0.01,0.09,0.02,0.13l0.23,0.88
		c0.37,0.72,1.11,1.22,1.97,1.22c0.53,0,1.02-0.19,1.4-0.5c0.03-0.03,0.04-0.01,0.02,0.05c4.31-3.49,9.52-6.25,15.32-7.97
		c0.61,0,1.1,0.5,1.1,1.11c0,0.37-0.18,0.69-0.46,0.9c-0.02,0.02,0.07-0.04,0.25-0.14c-8.88,6.78-15.28,17.28-16.61,29.08
		c-2.31,20.45,11.46,37.03,30.75,37.03c7.93,0,15.55-2.8,21.95-7.53c4.33-4.46,7-10.54,7-17.24c0-1.68-0.17-3.33-0.49-4.92
		c0,0.03,0.01,0.05,0,0.05c-0.25-0.96-1.12-1.67-2.15-1.67c-0.62,0-1.18,0.26-1.58,0.67c-0.01,0-0.01,0-0.02,0
		c-4.81,5.34-11.51,8.74-18.59,8.74c-12.65,0-21.68-10.87-20.17-24.28c0.96-8.54,5.97-16.03,12.74-20.37
		c2.74-1.49,6.85-2.39,9.85-2.39c5.34,0,10.4,2.75,14.35,4.92c0.26,0.14,0.46,0.2,0.64,0.21c0.11,0.08,0.22,0.17,0.34,0.26
		c0.17,0.04,0.35,0.07,0.53,0.07c0.79,0,1.48-0.41,1.88-1.03c0.02-0.04,0.06-0.07,0.11-0.09l11.18-19.64c0.06-0.2,0.1-0.42,0.1-0.65
		C147.32,23.23,146.33,22.24,145.1,22.24"/>
</g>
</svg>
