<?xml version="1.0" encoding="utf-8"?>
<!-- Generator: Adobe Illustrator 24.3.1, SVG Export Plug-In . SVG Version: 6.00 Build 0)  -->
<svg version="1.1" id="Layer_1" xmlns="http://www.w3.org/2000/svg" xmlns:xlink="http://www.w3.org/1999/xlink" x="0px" y="0px"
	 viewBox="0 0 345.61 509.43" style="enable-background:new 0 0 345.61 509.43;" xml:space="preserve">
<style type="text/css">
	.st0{fill:#FC7644;}
	.st1{fill:#FFFFFF;}
	.st2{fill:#2E3337;}
	.st3{fill:none;}
	.st4{enable-background:new    ;}
</style>
<g>
	<polygon class="st0" points="-446.01,614.91 -442.07,622.89 -433.28,624.16 -439.64,630.37 -438.14,639.13 -446.01,634.99 
		-453.88,639.13 -452.37,630.37 -458.74,624.16 -449.94,622.89 	"/>
	<polygon class="st0" points="-180.6,614.91 -176.66,622.89 -167.86,624.16 -174.23,630.37 -172.73,639.13 -180.6,634.99 
		-188.47,639.13 -186.96,630.37 -193.33,624.16 -184.53,622.89 	"/>
</g>
<polygon class="st1" points="307,455.07 311.91,465 322.86,466.58 314.93,474.31 316.8,485.21 307,480.06 297.21,485.21 
	299.09,474.31 291.16,466.58 302.11,465 "/>
<polygon class="st1" points="45.36,455.07 50.26,465 61.21,466.58 53.28,474.31 55.15,485.21 45.36,480.06 35.56,485.21 
	37.44,474.31 29.51,466.58 40.47,465 "/>
<path class="st2" d="M-389.28,132.52c0,15.57-8.24,25.25-28.79,25.25c-22.11,0-28-6.15-28-28.79h15.44
	c0,10.73,1.18,14.26,12.56,14.26c10.47,0,12.69-3.93,12.69-10.99c0-4.84-0.65-7.72-10.07-14.26l-8.77-6.15
	c-10.99-7.72-21.85-13.35-21.85-29.7c0-13.87,6.93-24.21,28.39-24.21c22.24,0,27.48,5.89,27.48,27.08h-15.18
	c0-11.78-4.45-12.69-12.69-12.69c-9.29,0-12.17,3.66-12.17,9.94c0,4.45,1.31,7.46,13.35,15.31l9.94,6.54
	c8.51,5.63,16.35,12.95,17.4,23.03C-389.41,128.99-389.28,130.82-389.28,132.52z"/>
<path class="st2" d="M-346.98,118.39h-10.47v37.03h-14.65V77.31c0-1.7-1.05-3.66-3.27-3.66h-8.37V59.9h38.34
	c20.54,0,28,7.98,28,29.7C-317.41,111.06-326.31,118.39-346.98,118.39z M-349.34,73.64h-6.54c-0.92,0-1.57,0.65-1.57,1.57v27.61
	c0,0.79,0.52,1.44,1.18,1.44h6.94c14.26,0,17.14-3.93,17.14-14.65C-332.2,78.35-333.77,73.64-349.34,73.64z"/>
<path class="st2" d="M-291.34,155.42h-14.92V59.9h14.92V155.42z"/>
<path class="st2" d="M-223.4,132.52c0,15.57-8.24,25.25-28.79,25.25c-22.11,0-28-6.15-28-28.79h15.44
	c0,10.73,1.18,14.26,12.56,14.26c10.47,0,12.69-3.93,12.69-10.99c0-4.84-0.65-7.72-10.07-14.26l-8.77-6.15
	c-10.99-7.72-21.85-13.35-21.85-29.7c0-13.87,6.93-24.21,28.39-24.21c22.24,0,27.48,5.89,27.48,27.08h-15.18
	c0-11.78-4.45-12.69-12.69-12.69c-9.29,0-12.17,3.66-12.17,9.94c0,4.45,1.31,7.46,13.35,15.31l9.94,6.54
	c8.51,5.63,16.35,12.95,17.4,23.03C-223.53,128.99-223.4,130.82-223.4,132.52z"/>
<g>
	<path class="st2" d="M-192.63,67.96h-8.65c-0.57,0-1.05,0.57-1.05,1.05v7.92c0,0.48,0.44,1.01,0.93,1.01h7.15v4.61h-7.11
		c-0.52,0-0.97,0.48-0.97,1.09v9.62h-4.61V68.97c0-0.57-0.24-1.01-0.85-1.01h-2.75v-4.24h17.9v4.24H-192.63z"/>
	<path class="st2" d="M-180.17,93.98c-7.15,0-8.6-2.18-8.6-15.43c0-11.72,1.45-15.39,8.69-15.39c7.6,0,8.61,2.34,8.61,15.39
		C-171.48,92.2-172.9,93.98-180.17,93.98z M-180.17,67.76c-2.91,0-4,0.48-4,10.79c0,9.98,1.05,10.79,4,10.79
		c3.03,0,4.04-0.69,4.04-10.79C-176.13,67.92-176.86,67.76-180.17,67.76z"/>
	<path class="st2" d="M-147.34,93.25h-4.77l-5.78-11.07c-0.12-0.24-0.24-0.36-0.48-0.36h-0.93c-0.32,0-0.44,0.16-0.44,0.48v10.95
		h-4.53V69.13c0-0.52-0.32-1.13-1.01-1.13h-2.59v-4.24h11.84c6.34,0,8.65,2.46,8.65,9.17c0,5.45-1.86,7.92-6.02,8.65L-147.34,93.25z
		 M-157.24,68h-2.06c-0.28,0-0.44,0.12-0.44,0.48v8.48c0,0.24,0.12,0.48,0.44,0.48h2.06c4.4,0,5.29-1.21,5.29-4.52
		C-151.95,69.45-152.43,68-157.24,68z"/>
</g>
<path class="st2" d="M-183.96,154.37h-22.91v-47.43h22.91v6.88h-13.89c-0.84,0-1.62,0.91-1.62,1.69v12.65
	c0,0.78,0.65,1.62,1.49,1.62h11.42v7.4h-11.36c-0.91,0-1.56,0.78-1.56,1.75v6.42c0,0.71,0.39,1.62,1.49,1.62h14.02L-183.96,154.37
	L-183.96,154.37z"/>
<path class="st2" d="M-148.53,154.37h-7.4l-12.07-27.9c-0.13-0.26-0.26-0.39-0.39-0.39s-0.26,0.13-0.26,0.39v27.9h-7.4V107h7.4
	l12,28.16c0.06,0.19,0.26,0.32,0.39,0.32s0.32-0.13,0.32-0.32V107h7.4L-148.53,154.37L-148.53,154.37z"/>
<g>
	<path class="st2" d="M-416.44,224.41h-7.06v-15.18c0-0.74-0.25-1.24-1.12-1.24h-8.12c-0.56,0-1.12,0.62-1.12,1.24v15.18h-7.62
		v-45.23h7.62v20.69c0,0.62,0.43,1.18,0.99,1.18h8.24c0.68,0,1.12-0.37,1.12-1.3v-20.57h7.06v45.23L-416.44,224.41L-416.44,224.41z"
		/>
	<path class="st2" d="M-381.39,203.28c0,19.45-2.48,22.24-13.32,22.24c-10.72,0-13.2-3.22-13.2-22.24v-24.16h7.06v24.29
		c0,13.82,1.73,14.99,6.07,14.99c4.52,0,6.26-0.93,6.26-14.99v-24.29h7.12v24.16H-381.39z"/>
	<path class="st2" d="M-346.09,224.41h-7.06l-11.52-26.64c-0.12-0.25-0.25-0.37-0.37-0.37s-0.25,0.12-0.25,0.37v26.64h-7.06v-45.23
		h7.06l11.46,26.89c0.06,0.19,0.25,0.31,0.37,0.31s0.31-0.12,0.31-0.31v-26.89h7.06V224.41z"/>
	<path class="st2" d="M-320.08,224.41h-12.64v-37.17c0-0.87-0.5-1.61-1.55-1.61h-3.97v-6.51l18.15,0.06
		c7.74,0.06,13.26,3.1,13.26,22.74C-306.82,219.2-311.9,224.41-320.08,224.41z M-321.94,185.69h-2.85c-0.62,0-0.93,0.37-0.93,0.93
		v30.3c0,0.62,0.31,0.87,0.81,0.87h2.97c6.75,0,8.12-5.82,8.12-15.86C-313.82,190.58-314.57,185.69-321.94,185.69z"/>
	<path class="st2" d="M-268.42,224.41h-7.31l-8.86-16.98c-0.19-0.37-0.37-0.56-0.74-0.56h-1.42c-0.5,0-0.68,0.25-0.68,0.74v16.79
		h-6.94v-36.99c0-0.81-0.5-1.73-1.55-1.73h-3.97v-6.51h18.15c9.73,0,13.26,3.78,13.26,14.06c0,8.36-2.85,12.14-9.23,13.26
		L-268.42,224.41z M-283.6,185.69h-3.16c-0.43,0-0.68,0.19-0.68,0.74v13.01c0,0.37,0.19,0.74,0.68,0.74h3.16
		c6.75,0,8.12-1.86,8.12-6.94C-275.49,187.92-276.23,185.69-283.6,185.69z"/>
	<path class="st2" d="M-251.65,224.41h-7.06v-45.23h7.06V224.41z"/>
	<path class="st2" d="M-215.05,224.41h-7.06l-11.52-26.64c-0.12-0.25-0.25-0.37-0.37-0.37s-0.25,0.12-0.25,0.37v26.64h-7.06v-45.23
		h7.06l11.46,26.89c0.06,0.19,0.25,0.31,0.37,0.31s0.31-0.12,0.31-0.31v-26.89h7.06V224.41z"/>
	<path class="st2" d="M-187.49,191.32c0-5.45-1.92-6.01-5.76-6.01c-4.34,0-6.13,0.74-6.13,16.54c0,15.3,1.8,16.54,6.13,16.54
		c4.09,0,5.7-1.12,5.7-6.2v-3.53c0-0.43-0.25-0.68-0.62-0.68h-5.08v-7.06h12.89c0.12,1.67,0.19,3.47,0.19,5.27
		c0,16.73-2.85,19.33-13.07,19.33c-10.97,0-13.2-3.35-13.2-23.67c0-17.97,2.23-23.61,13.32-23.61c9.23,0,12.02,2.23,12.83,13.07
		L-187.49,191.32L-187.49,191.32z"/>
	<path class="st2" d="M-147.34,213.53c0,7.37-3.9,11.95-13.62,11.95c-10.46,0-13.25-2.91-13.25-13.62h7.3
		c0,5.08,0.56,6.75,5.94,6.75c4.95,0,6-1.86,6-5.2c0-2.29-0.31-3.65-4.77-6.75l-4.15-2.91c-5.2-3.65-10.34-6.31-10.34-14.05
		c0-6.56,3.28-11.45,13.43-11.45c10.52,0,13,2.79,13,12.81h-7.18c0-5.57-2.1-6-6-6c-4.39,0-5.76,1.73-5.76,4.7
		c0,2.1,0.62,3.53,6.31,7.24l4.7,3.09c4.02,2.66,7.74,6.13,8.23,10.89C-147.4,211.86-147.34,212.73-147.34,213.53z"/>
</g>
<g>
	<path class="st0" d="M-397.9,423.84h-27.32V283.17h-15.1c-4.07,0-5.75-3.83-5.75-7.67c0-3.11,1.92-6.23,5.75-6.71
		c18.93-2.64,23.01-17.01,23.01-19.89h19.41V423.84z"/>
	<path class="st0" d="M-272.33,388.37c0,33.31-19.17,38.58-49.36,38.58c-40.98,0-49.84-9.59-49.84-38.58V280.54
		c0-22.53,12.7-33.31,50.08-33.31c32.35,0,49.12,10.78,49.12,33.31L-272.33,388.37L-272.33,388.37z M-299.89,305.94
		c0-24.92-4.07-31.87-21.33-31.87c-19.17,0-22.29,5.27-22.29,31.87v66.62c0,21.81,6.95,27.08,22.05,27.08
		c15.82,0,21.57-8.87,21.57-27.08V305.94z"/>
	<path class="st0" d="M-150.59,388.37c0,33.31-19.17,38.58-49.36,38.58c-40.98,0-49.84-9.59-49.84-38.58V280.54
		c0-22.53,12.7-33.31,50.08-33.31c32.35,0,49.12,10.78,49.12,33.31V388.37z M-178.15,305.94c0-24.92-4.07-31.87-21.33-31.87
		c-19.17,0-22.29,5.27-22.29,31.87v66.62c0,21.81,6.95,27.08,22.05,27.08c15.82,0,21.57-8.87,21.57-27.08V305.94z"/>
</g>
<g>
	<g>
		<path class="st0" d="M-407.04,35.39h-36.66l16.44-15.1c1.05-0.96,2.74-0.96,3.79,0L-407.04,35.39z"/>
	</g>
	<g>
		<path class="st0" d="M-370.38,35.39h-36.66l16.44-15.1c1.05-0.96,2.74-0.96,3.79,0L-370.38,35.39z"/>
	</g>
	<g>
		<path class="st0" d="M-333.72,35.39h-36.66l16.44-15.1c1.05-0.96,2.74-0.96,3.79,0L-333.72,35.39z"/>
	</g>
	<g>
		<path class="st0" d="M-297.07,35.39h-36.66l16.44-15.1c1.05-0.96,2.74-0.96,3.79,0L-297.07,35.39z"/>
	</g>
	<g>
		<path class="st0" d="M-260.41,35.39h-36.66l16.44-15.1c1.05-0.96,2.74-0.96,3.79,0L-260.41,35.39z"/>
	</g>
	<g>
		<path class="st0" d="M-223.76,35.39h-36.66l16.44-15.1c1.05-0.96,2.74-0.96,3.79,0L-223.76,35.39z"/>
	</g>
	<g>
		<path class="st0" d="M-187.1,35.39h-36.66l16.44-15.1c1.05-0.96,2.74-0.96,3.79,0L-187.1,35.39z"/>
	</g>
	<g>
		<path class="st0" d="M-150.44,35.39h-36.66l16.44-15.1c1.05-0.96,2.74-0.96,3.79,0L-150.44,35.39z"/>
	</g>
</g>
<rect x="-441.47" y="448.46" class="st3" width="289.52" height="42.19"/>
<text transform="matrix(1 0 0 1 -366.4748 479.8504)" class="st2" style="font-family:'KonTikiJF-Aloha'; font-size:43px;">24.-28. </text>
<rect x="806.58" y="643.48" class="st3" width="345.61" height="57.69"/>
<g class="st4">
	<path class="st1" d="M540.24,671.45l-4.51,2.8c-1.71,1.05-2.71,2.23-2.71,4.02v1.4h7.48c1.31,0,1.79-0.7,1.79-1.97v-1.75h4.59v8.01
		h-18.93V677c0-2.32,1.4-4.77,4.86-7.04l3.15-2.06c5.25-3.41,6.08-5.08,6.08-7.22c0-1.66-0.31-4.16-4.29-4.16
		c-4.72,0-4.51,3.37-4.51,5.42v0.74h-4.94c0-5.34,0.39-11.07,9.76-11.07c8.22,0,9.45,3.54,9.45,7.39
		C547.5,665.15,546.28,667.69,540.24,671.45z"/>
	<path class="st1" d="M561.64,684.53c-9.71,0-9.76-5.07-9.76-10.67h5.34c0,3.28,0.44,5.95,4.51,5.95c3.89,0,4.46-2.23,4.46-4.9
		c0-3.11-1.31-4.55-4.94-4.55h-2.27v-5.16h2.14c3.15,0,4.99-0.66,4.99-5.34c0-2.71-1.71-3.33-4.37-3.33c-3.63,0-4.55,1.71-4.55,5.86
		h-5.21c0-5.42,1.01-10.67,9.58-10.67c7.22,0,9.67,1.66,9.67,7.87c0,6.56-1.75,7.57-4.55,7.74c2.84,0.53,4.86,1.23,4.86,8.27
		C571.52,682.83,567.94,684.53,561.64,684.53z"/>
	<path class="st1" d="M583.34,683.31c0,0.39-0.26,0.66-0.66,0.66h-3.89c-0.39,0-0.66-0.26-0.66-0.66v-3.89
		c0-0.39,0.26-0.66,0.66-0.66h3.89c0.39,0,0.66,0.26,0.66,0.66V683.31z"/>
	<path class="st1" d="M600.93,671.41c0,0.39-0.26,0.66-0.66,0.66h-9.49c-0.39,0-0.66-0.26-0.66-0.66v-2.19
		c0-0.35,0.26-0.66,0.66-0.66h9.49c0.39,0,0.66,0.31,0.66,0.66V671.41z"/>
	<path class="st1" d="M619.13,671.45l-4.51,2.8c-1.71,1.05-2.71,2.23-2.71,4.02v1.4h7.48c1.31,0,1.79-0.7,1.79-1.97v-1.75h4.59v8.01
		h-18.94V677c0-2.32,1.4-4.77,4.86-7.04l3.15-2.06c5.25-3.41,6.08-5.08,6.08-7.22c0-1.66-0.31-4.16-4.29-4.16
		c-4.72,0-4.51,3.37-4.51,5.42v0.74h-4.94c0-5.34,0.39-11.07,9.76-11.07c8.22,0,9.45,3.54,9.45,7.39
		C626.39,665.15,625.16,667.69,619.13,671.45z"/>
	<path class="st1" d="M651.85,655.18l-14.09,28.79h-5.6l13.12-26.55c0.04-0.09,0.09-0.17,0.09-0.31c0-0.26-0.22-0.48-0.66-0.48
		h-6.96c-2.58,0-2.41,0.35-2.41,2.54v0.74h-4.42v-7.88h20.91v3.15H651.85z"/>
	<path class="st1" d="M656.58,683.31c0,0.39-0.26,0.66-0.66,0.66h-3.89c-0.39,0-0.66-0.26-0.66-0.66v-3.89
		c0-0.39,0.26-0.66,0.66-0.66h3.89c0.39,0,0.66,0.26,0.66,0.66V683.31z"/>
	<path class="st1" d="M697.75,683.96h-5.21l-1.62-7.17c-0.04-0.35-0.31-0.48-0.61-0.48h-7.39c-0.26,0-0.57,0.17-0.61,0.39
		l-1.58,7.31h-5.03l7.35-31.98h7.66L697.75,683.96z M686.81,658.33c-0.04-0.09-0.09-0.13-0.17-0.13c-0.09,0-0.17,0.04-0.17,0.13
		l-3.06,13.61c0,0.13,0.04,0.39,0.39,0.39h5.69c0.31,0,0.44-0.17,0.44-0.44L686.81,658.33z"/>
	<path class="st1" d="M719.62,669.05c0,13.74-1.75,15.71-9.41,15.71c-7.52,0-9.32-2.27-9.32-15.71v-17.06h4.99v17.15
		c0,9.76,1.22,10.59,4.33,10.59c3.19,0,4.38-0.66,4.38-10.59v-17.15h5.03V669.05z"/>
	<path class="st1" d="M737.3,660.6c0-3.85-1.36-4.24-4.07-4.24c-3.06,0-4.33,0.53-4.33,11.68c0,10.81,1.31,11.68,4.33,11.68
		c2.89,0,4.03-0.79,4.03-4.38v-2.27c0-0.44-0.17-0.7-0.61-0.7h-3.41v-4.99h9.1c0.09,1.27,0.17,2.58,0.17,3.94
		c0,11.64-2.14,13.43-9.27,13.43c-7.74,0-9.32-2.36-9.32-16.71c0-12.69,1.57-16.67,9.41-16.67c6.52,0,8.49,1.58,9.06,9.23H737.3z"/>
	<path class="st1" d="M765.39,669.05c0,13.74-1.75,15.71-9.41,15.71c-7.52,0-9.32-2.27-9.32-15.71v-17.06h4.99v17.15
		c0,9.76,1.22,10.59,4.33,10.59c3.19,0,4.38-0.66,4.38-10.59v-17.15h5.03V669.05z"/>
	<path class="st1" d="M788.49,676.31c0,5.21-2.76,8.44-9.62,8.44c-7.39,0-9.36-2.06-9.36-9.62h5.16c0,3.59,0.39,4.77,4.2,4.77
		c3.5,0,4.24-1.31,4.24-3.67c0-1.62-0.22-2.58-3.37-4.77l-2.93-2.06c-3.67-2.58-7.3-4.46-7.3-9.93c0-4.64,2.32-8.09,9.49-8.09
		c7.44,0,9.19,1.97,9.19,9.06h-5.08c0-3.94-1.49-4.24-4.24-4.24c-3.11,0-4.07,1.22-4.07,3.33c0,1.49,0.44,2.49,4.46,5.12l3.33,2.19
		c2.84,1.88,5.47,4.33,5.82,7.7C788.44,675.13,788.49,675.74,788.49,676.31z"/>
	<path class="st1" d="M809.53,656.62h-5.69c-0.7,0-0.96,0.66-0.96,1.09v26.25h-4.99v-26.29c0-0.61-0.26-1.05-0.83-1.05h-5.82v-4.64
		h18.29V656.62L809.53,656.62z"/>
</g>
<g class="st4">
	<path class="st1" d="M118.74,456.78h-6.63c-0.82,0-1.12,0.77-1.12,1.28v30.6h-5.81V458c0-0.71-0.31-1.22-0.97-1.22h-6.78v-5.41
		h21.32V456.78z"/>
	<path class="st1" d="M147.66,488.65h-6.02l-7.29-13.97c-0.15-0.31-0.31-0.46-0.61-0.46h-1.17c-0.41,0-0.56,0.2-0.56,0.61v13.82
		h-5.71V458.2c0-0.66-0.41-1.43-1.27-1.43h-3.26v-5.35h14.94c8.01,0,10.91,3.11,10.91,11.58c0,6.88-2.35,10-7.6,10.91L147.66,488.65
		z M135.16,456.78h-2.6c-0.36,0-0.56,0.15-0.56,0.61v10.71c0,0.31,0.15,0.61,0.56,0.61h2.6c5.56,0,6.68-1.53,6.68-5.71
		C141.85,458.61,141.23,456.78,135.16,456.78z"/>
	<path class="st1" d="M163.32,489.57c-9.03,0-10.86-2.75-10.86-19.48c0-14.79,1.84-19.43,10.96-19.43c9.59,0,10.86,2.96,10.86,19.43
		C174.28,487.32,172.5,489.57,163.32,489.57z M163.32,456.47c-3.67,0-5.05,0.61-5.05,13.62c0,12.6,1.33,13.62,5.05,13.62
		c3.82,0,5.1-0.87,5.1-13.62C168.42,456.67,167.5,456.47,163.32,456.47z"/>
	<path class="st1" d="M204.01,488.7h-5.81v-12.95c0-0.41-0.2-0.61-0.41-0.61c-0.15,0-0.36,0.15-0.41,0.41l-3.72,13.16h-3.72
		l-3.93-13c-0.1-0.41-0.31-0.61-0.46-0.61c-0.2,0-0.41,0.31-0.41,0.82v12.8h-5.81v-37.33h5.81l6.02,21.37
		c0.15,0.61,0.46,0.92,0.77,0.92c0.25,0,0.56-0.31,0.71-0.92l5.56-21.37h5.81V488.7z"/>
	<path class="st1" d="M231.04,479.72c0,6.07-3.21,9.84-11.22,9.84c-8.62,0-10.91-2.4-10.91-11.22h6.02c0,4.18,0.46,5.56,4.9,5.56
		c4.08,0,4.95-1.53,4.95-4.28c0-1.89-0.25-3.01-3.93-5.56l-3.42-2.4c-4.28-3.01-8.52-5.2-8.52-11.58c0-5.41,2.7-9.43,11.07-9.43
		c8.67,0,10.71,2.29,10.71,10.56h-5.92c0-4.59-1.73-4.95-4.95-4.95c-3.62,0-4.74,1.43-4.74,3.88c0,1.73,0.51,2.91,5.2,5.97
		l3.88,2.55c3.31,2.19,6.38,5.05,6.78,8.98C230.99,478.35,231.04,479.06,231.04,479.72z"/>
	<path class="st1" d="M257.36,451.88c0,0.36,0.1,0.82-0.15,1.12l-1.53,2.65c0.97,2.96,1.22,7.5,1.22,14.43
		c0,17.24-1.79,19.48-10.96,19.48c-4.03,0-6.63-0.56-8.31-2.7l-2.09,3.62c-0.1,0.15-0.36,0.25-0.56,0.25c-0.25,0-0.46-0.1-0.46-0.36
		v-2.75c0-0.41,0.1-0.92,0.31-1.28l1.43-2.4c-0.92-2.96-1.17-7.34-1.17-13.87c0-14.79,1.84-19.43,10.96-19.43
		c4.13,0,6.73,0.56,8.31,2.5l2.04-3.47c0.1-0.1,0.2-0.15,0.36-0.15c0.31,0,0.66,0.2,0.66,0.46L257.36,451.88z M250.47,459.73
		c-0.61-3.21-1.99-3.26-4.54-3.26c-3.67,0-5.05,0.61-5.05,13.62c0,2.24,0.05,4.13,0.15,5.71L250.47,459.73z M250.93,463.92
		l-9.38,16.22c0.71,3.16,2.09,3.57,4.39,3.57c3.82,0,5.1-0.87,5.1-13.62C251.04,467.59,250.98,465.55,250.93,463.92z"/>
</g>
<rect x="985.94" y="447.26" class="st3" width="345.61" height="57.69"/>
<text transform="matrix(1 0 0 1 1083.8406 486.1943)" class="st1" style="font-family:'KonTikiJF-Aloha'; font-size:51px; letter-spacing:2;">TROMSØ</text>
<g>
	<g>
		<path class="st0" d="M-327.85-90.1h-27.82l12.47-11.46c0.79-0.73,2.08-0.73,2.87,0L-327.85-90.1z"/>
	</g>
	<g>
		<path class="st0" d="M-300.03-90.1h-27.82l12.47-11.46c0.79-0.73,2.08-0.73,2.87,0L-300.03-90.1z"/>
	</g>
	<g>
		<path class="st0" d="M-272.21-90.1h-27.82l12.47-11.46c0.79-0.73,2.08-0.73,2.87,0L-272.21-90.1z"/>
	</g>
	<g>
		<path class="st0" d="M-244.38-90.1h-27.82l12.47-11.46c0.79-0.73,2.08-0.73,2.87,0L-244.38-90.1z"/>
	</g>
	<g>
		<path class="st0" d="M-216.56-90.1h-27.82l12.47-11.46c0.79-0.73,2.08-0.73,2.87,0L-216.56-90.1z"/>
	</g>
	<g>
		<path class="st0" d="M-188.74-90.1h-27.82l12.47-11.46c0.79-0.73,2.08-0.73,2.87,0L-188.74-90.1z"/>
	</g>
	<g>
		<path class="st0" d="M-160.92-90.1h-27.82l12.47-11.46c0.79-0.73,2.08-0.73,2.87,0L-160.92-90.1z"/>
	</g>
	<g>
		<path class="st0" d="M-133.1-90.1h-27.82l12.47-11.46c0.79-0.73,2.08-0.73,2.87,0L-133.1-90.1z"/>
	</g>
</g>
<rect x="787.46" y="16.79" class="st3" width="383.85" height="55.94"/>
<text transform="matrix(1 0 0 1 836.3135 47.7568)" style="font-family:'KonTikiJF-Aloha'; font-size:42.4261px;">24.-28. august</text>
<path d="M892.38-309.43c0,17.04-9.02,27.63-31.49,27.63c-24.19,0-30.63-6.73-30.63-31.49h16.89c0,11.74,1.29,15.6,13.74,15.6
	c11.45,0,13.89-4.3,13.89-12.02c0-5.3-0.72-8.45-11.02-15.6l-9.59-6.73c-12.02-8.45-23.91-14.6-23.91-32.5
	c0-15.17,7.59-26.48,31.06-26.48c24.34,0,30.06,6.44,30.06,29.63h-16.61c0-12.88-4.87-13.89-13.89-13.89
	c-10.16,0-13.31,4.01-13.31,10.88c0,4.87,1.43,8.16,14.6,16.75l10.88,7.16c9.3,6.16,17.89,14.17,19.04,25.19
	C892.23-313.29,892.38-311.29,892.38-309.43z"/>
<path d="M934.97-324.89h-11.45v40.51h-16.03v-85.46c0-1.86-1.15-4.01-3.58-4.01h-9.16v-15.03h41.94c22.47,0,30.63,8.73,30.63,32.5
	C967.32-332.9,957.59-324.89,934.97-324.89z M932.4-373.84h-7.16c-1,0-1.72,0.72-1.72,1.72v30.2c0,0.86,0.57,1.58,1.29,1.58h7.59
	c15.6,0,18.75-4.29,18.75-16.03C951.15-368.69,949.43-373.84,932.4-373.84z"/>
<path d="M992.17-284.38h-16.32v-104.5h16.32V-284.38z"/>
<path d="M1062.82-309.43c0,17.04-9.02,27.63-31.49,27.63c-24.19,0-30.63-6.73-30.63-31.49h16.89c0,11.74,1.29,15.6,13.74,15.6
	c11.45,0,13.89-4.3,13.89-12.02c0-5.3-0.72-8.45-11.02-15.6l-9.59-6.73c-12.02-8.45-23.91-14.6-23.91-32.5
	c0-15.17,7.59-26.48,31.06-26.48c24.34,0,30.06,6.44,30.06,29.63h-16.61c0-12.88-4.87-13.89-13.89-13.89
	c-10.16,0-13.31,4.01-13.31,10.88c0,4.87,1.43,8.16,14.6,16.75l10.88,7.16c9.3,6.16,17.89,14.17,19.04,25.19
	C1062.68-313.29,1062.82-311.29,1062.82-309.43z"/>
<path d="M854.62-216.72h-7.74v-16.64c0-0.82-0.27-1.36-1.22-1.36h-8.9c-0.61,0-1.22,0.68-1.22,1.36v16.64h-8.35v-49.58h8.35v22.69
	c0,0.68,0.48,1.29,1.09,1.29h9.03c0.75,0,1.22-0.41,1.22-1.43v-22.55h7.74L854.62-216.72L854.62-216.72z"/>
<path d="M888.89-239.88c0,21.33-2.72,24.38-14.6,24.38c-11.75,0-14.47-3.53-14.47-24.38v-26.49h7.74v26.63
	c0,15.15,1.9,16.44,6.66,16.44c4.96,0,6.86-1.02,6.86-16.44v-26.63h7.81V-239.88z"/>
<path d="M923.42-216.72h-7.74l-12.63-29.21c-0.14-0.27-0.27-0.41-0.41-0.41c-0.14,0-0.27,0.14-0.27,0.41v29.21h-7.74v-49.58h7.74
	l12.57,29.48c0.07,0.2,0.27,0.34,0.41,0.34s0.34-0.14,0.34-0.34v-29.48h7.74v49.58L923.42-216.72L923.42-216.72z"/>
<path d="M947.77-216.72h-13.86v-40.75c0-0.95-0.54-1.77-1.7-1.77h-4.35v-7.13l19.9,0.07c8.49,0.07,14.54,3.4,14.54,24.93
	C962.31-222.42,956.74-216.72,947.77-216.72z M945.74-259.17h-3.12c-0.68,0-1.02,0.41-1.02,1.02v33.21c0,0.68,0.34,0.95,0.88,0.95
	h3.26c7.4,0,8.9-6.38,8.9-17.39C954.63-253.8,953.82-259.17,945.74-259.17z"/>
<path d="M1000.24-216.72h-8.01l-9.71-18.61c-0.2-0.41-0.41-0.61-0.82-0.61h-1.56c-0.54,0-0.75,0.27-0.75,0.81v18.41h-7.61v-40.55
	c0-0.88-0.54-1.9-1.7-1.9h-4.35v-7.13h19.9c10.66,0,14.54,4.14,14.54,15.42c0,9.17-3.12,13.31-10.12,14.54L1000.24-216.72z
	 M983.6-259.17h-3.46c-0.48,0-0.75,0.2-0.75,0.81v14.26c0,0.41,0.2,0.81,0.75,0.81h3.46c7.4,0,8.9-2.04,8.9-7.61
	C992.5-256.72,991.69-259.17,983.6-259.17z"/>
<path d="M1014.47-216.72h-7.74v-49.58h7.74V-216.72z"/>
<path d="M1050.44-216.72h-7.74l-12.63-29.21c-0.14-0.27-0.27-0.41-0.41-0.41s-0.27,0.14-0.27,0.41v29.21h-7.74v-49.58h7.74
	l12.57,29.48c0.07,0.2,0.27,0.34,0.41,0.34s0.34-0.14,0.34-0.34v-29.48h7.74L1050.44-216.72L1050.44-216.72z"/>
<path d="M1076.49-252.99c0-5.98-2.11-6.59-6.32-6.59c-4.75,0-6.72,0.81-6.72,18.14c0,16.78,1.97,18.13,6.72,18.13
	c4.48,0,6.25-1.22,6.25-6.79v-3.87c0-0.48-0.27-0.75-0.68-0.75h-5.57v-7.74h14.13c0.14,1.83,0.2,3.8,0.2,5.77
	c0,18.34-3.12,21.19-14.33,21.19c-12.02,0-14.47-3.67-14.47-25.95c0-19.7,2.44-25.88,14.6-25.88c10.12,0,13.18,2.44,14.06,14.33
	L1076.49-252.99L1076.49-252.99z"/>
<path d="M1118.43-228.6c0,8.08-4.28,13.11-14.94,13.11c-11.48,0-14.54-3.19-14.54-14.94h8.01c0,5.57,0.61,7.4,6.52,7.4
	c5.43,0,6.59-2.04,6.59-5.71c0-2.51-0.34-4.01-5.23-7.4l-4.55-3.19c-5.71-4.01-11.34-6.93-11.34-15.42c0-7.2,3.6-12.57,14.74-12.57
	c11.55,0,14.26,3.06,14.26,14.06h-7.88c0-6.11-2.31-6.59-6.59-6.59c-4.82,0-6.32,1.9-6.32,5.16c0,2.31,0.68,3.87,6.93,7.95l5.16,3.4
	c4.42,2.92,8.49,6.72,9.03,11.95C1118.36-230.44,1118.43-229.49,1118.43-228.6z"/>
<path class="st0" d="M872.97-10.3H844.9v-144.53h-15.51c-4.18,0-5.91-3.94-5.91-7.88c0-3.2,1.97-6.4,5.91-6.89
	c19.45-2.71,23.64-17.48,23.64-20.44h19.94L872.97-10.3L872.97-10.3z"/>
<path class="st0" d="M996.31-46.74c0,34.22-19.7,39.64-50.72,39.64c-42.1,0-51.21-9.85-51.21-39.64v-110.79
	c0-23.15,13.05-34.22,51.46-34.22c33.24,0,50.47,11.08,50.47,34.22L996.31-46.74L996.31-46.74z M968-131.43
	c0-25.61-4.18-32.75-21.91-32.75c-19.7,0-22.9,5.42-22.9,32.75v68.45c0,22.4,7.14,27.82,22.65,27.82c16.25,0,22.16-9.11,22.16-27.82
	V-131.43z"/>
<path class="st0" d="M1118.43-46.74c0,34.22-19.7,39.64-50.72,39.64c-42.1,0-51.21-9.85-51.21-39.64v-110.79
	c0-23.15,13.05-34.22,51.46-34.22c33.24,0,50.47,11.08,50.47,34.22V-46.74z M1090.11-131.43c0-25.61-4.18-32.75-21.91-32.75
	c-19.7,0-22.9,5.42-22.9,32.75v68.45c0,22.4,7.14,27.82,22.65,27.82c16.25,0,22.16-9.11,22.16-27.82V-131.43z"/>
<g>
	<g>
		<path class="st0" d="M872.69-416.84h-41.5l18.61-17.09c1.18-1.09,3.1-1.09,4.28,0L872.69-416.84z"/>
	</g>
	<g>
		<path class="st0" d="M914.19-416.84h-41.5l18.61-17.09c1.18-1.09,3.1-1.09,4.28,0L914.19-416.84z"/>
	</g>
	<g>
		<path class="st0" d="M955.68-416.84h-41.5l18.61-17.09c1.18-1.09,3.1-1.09,4.28,0L955.68-416.84z"/>
	</g>
	<g>
		<path class="st0" d="M997.18-416.84h-41.5l18.61-17.09c1.18-1.09,3.1-1.09,4.28,0L997.18-416.84z"/>
	</g>
	<g>
		<path class="st0" d="M1038.67-416.84h-41.5l18.61-17.09c1.18-1.09,3.1-1.09,4.28,0L1038.67-416.84z"/>
	</g>
	<g>
		<path class="st0" d="M1080.17-416.84h-41.5l18.61-17.09c1.18-1.09,3.1-1.09,4.28,0L1080.17-416.84z"/>
	</g>
	<g>
		<path class="st0" d="M1121.67-416.84h-41.5l18.61-17.09c1.18-1.09,3.1-1.09,4.28,0L1121.67-416.84z"/>
	</g>
</g>
<g>
	<path d="M1087.72-299.81v9.17c0,0.56,0.6,1.07,1.11,1.07h8.45c0.51,0,1.07-0.43,1.07-0.99v-7.55h4.89v7.5
		c0,0.6,0.51,1.07,1.16,1.07h10.2v4.84h-31.34v-15.13h4.46L1087.72-299.81L1087.72-299.81z"/>
	<path d="M1115.37-309.76c0,7.59-2.32,9.13-16.38,9.13c-12.43,0-16.33-1.54-16.33-9.22c0-8.06,2.49-9.13,16.33-9.13
		C1113.48-318.97,1115.37-317.47,1115.37-309.76z M1087.54-309.76c0,3.09,0.51,4.24,11.45,4.24c10.59,0,11.45-1.11,11.45-4.24
		c0-3.22-0.73-4.29-11.45-4.29C1087.72-314.04,1087.54-313.27,1087.54-309.76z"/>
	<path d="M1114.6-339.86v5.23l-11.79,6.13c-0.21,0.09-0.34,0.21-0.34,0.47v0.94c0,0.21,0.17,0.39,0.39,0.39h11.75v4.8h-31.3v-8.75
		c0-6.77,2.62-9.22,9.73-9.22c5.79,0,8.4,1.97,9.18,6.43L1114.6-339.86z M1087.8-329.35v2.02c0,0.43,0.13,0.64,0.52,0.64h9
		c0.26,0,0.52-0.13,0.52-0.47v-2.19c0-4.67-1.29-5.62-4.8-5.62C1089.34-334.97,1087.8-334.45,1087.8-329.35z"/>
	<path d="M1114.6-369.01v15.13h-31.34v-15.13h4.46v9.18c0,0.56,0.6,1.07,1.11,1.07h8.45c0.51,0,1.07-0.43,1.07-0.99v-7.55h4.89v7.5
		c0,0.6,0.51,1.03,1.16,1.03h4.24c0.47,0,1.07-0.26,1.07-0.99v-9.26L1114.6-369.01L1114.6-369.01z"/>
	<path d="M1114.6-389.68v4.89l-18.61,8.06c-0.09,0.04-0.13,0.13-0.13,0.17c0,0.09,0.04,0.17,0.17,0.17h18.57v4.89h-31.3v-4.89
		l18.82-8.06c0.09-0.04,0.17-0.13,0.17-0.21c0-0.04-0.09-0.13-0.17-0.13h-18.82v-4.89L1114.6-389.68L1114.6-389.68z"/>
</g>
<g>
	<path class="st1" d="M88.12,129.1c0,16.41-8.69,26.61-30.34,26.61c-23.3,0-29.51-6.48-29.51-30.34h16.27
		c0,11.31,1.24,15.03,13.24,15.03c11.03,0,13.38-4.14,13.38-11.58c0-5.1-0.69-8.14-10.62-15.03l-9.24-6.48
		c-11.58-8.14-23.02-14.07-23.02-31.3c0-14.62,7.31-25.51,29.92-25.51c23.44,0,28.96,6.2,28.96,28.54h-16
		c0-12.41-4.69-13.38-13.38-13.38c-9.79,0-12.82,3.86-12.82,10.48c0,4.69,1.38,7.86,14.06,16.13l10.48,6.9
		c8.96,5.93,17.24,13.65,18.34,24.27C87.98,125.37,88.12,127.3,88.12,129.1z"/>
	<path class="st1" d="M129.15,114.2h-11.03v39.02h-15.44V70.91c0-1.79-1.1-3.86-3.45-3.86H90.4V52.57h40.4
		c21.65,0,29.51,8.41,29.51,31.3C160.31,106.48,150.94,114.2,129.15,114.2z M126.67,67.05h-6.9c-0.97,0-1.65,0.69-1.65,1.65v29.09
		c0,0.83,0.55,1.52,1.24,1.52h7.31c15.03,0,18.06-4.14,18.06-15.44C144.73,72.01,143.08,67.05,126.67,67.05z"/>
	<path class="st1" d="M184.25,153.23h-15.72V52.57h15.72V153.23z"/>
	<path class="st1" d="M252.3,129.1c0,16.41-8.69,26.61-30.34,26.61c-23.3,0-29.51-6.48-29.51-30.34h16.27
		c0,11.31,1.24,15.03,13.24,15.03c11.03,0,13.38-4.14,13.38-11.58c0-5.1-0.69-8.14-10.62-15.03l-9.24-6.48
		c-11.58-8.14-23.03-14.07-23.03-31.3c0-14.62,7.31-25.51,29.92-25.51c23.44,0,28.96,6.2,28.96,28.54h-16
		c0-12.41-4.69-13.38-13.38-13.38c-9.79,0-12.82,3.86-12.82,10.48c0,4.69,1.38,7.86,14.06,16.13l10.48,6.9
		c8.96,5.93,17.24,13.65,18.34,24.27C252.16,125.37,252.3,127.3,252.3,129.1z"/>
	<path class="st1" d="M281.29,58.04h-10.02c-0.66,0-1.22,0.66-1.22,1.22v9.17c0,0.56,0.51,1.17,1.08,1.17h8.29v5.34h-8.24
		c-0.61,0-1.12,0.56-1.12,1.26v11.14h-5.34V59.21c0-0.66-0.28-1.17-0.98-1.17h-3.18v-4.91h20.74v4.91H281.29z"/>
	<path class="st1" d="M293.27,88.19c-8.28,0-9.97-2.53-9.97-17.88c0-13.57,1.69-17.83,10.06-17.83c8.8,0,9.97,2.71,9.97,17.83
		C303.34,86.13,301.7,88.19,293.27,88.19z M293.27,57.81c-3.37,0-4.63,0.56-4.63,12.5c0,11.56,1.22,12.5,4.63,12.5
		c3.51,0,4.68-0.8,4.68-12.5C297.96,57.99,297.11,57.81,293.27,57.81z"/>
	<path class="st1" d="M328.85,87.34h-5.52l-6.69-12.83c-0.14-0.28-0.28-0.42-0.56-0.42H315c-0.37,0-0.51,0.19-0.51,0.56v12.68h-5.24
		V59.4c0-0.61-0.37-1.31-1.17-1.31h-3v-4.92h13.71c7.35,0,10.02,2.86,10.02,10.63c0,6.32-2.15,9.17-6.97,10.02L328.85,87.34z
		 M317.38,58.09h-2.39c-0.33,0-0.51,0.14-0.51,0.56v9.83c0,0.28,0.14,0.56,0.51,0.56h2.39c5.1,0,6.13-1.4,6.13-5.24
		C323.51,59.77,322.95,58.09,317.38,58.09z"/>
	<path class="st1" d="M291.19,153.3h-26.47V98.48h26.47v7.95h-16.05c-0.97,0-1.87,1.05-1.87,1.95V123c0,0.9,0.75,1.87,1.72,1.87
		h13.2v8.55h-13.12c-1.05,0-1.8,0.9-1.8,2.02v7.42c0,0.83,0.45,1.87,1.72,1.87h16.2L291.19,153.3L291.19,153.3z"/>
	<path class="st1" d="M327.34,153.3h-8.55l-13.95-32.24c-0.15-0.3-0.3-0.45-0.45-0.45c-0.15,0-0.3,0.15-0.3,0.45v32.24h-8.55V98.55
		h8.55l13.87,32.55c0.07,0.23,0.3,0.37,0.45,0.37c0.15,0,0.38-0.15,0.38-0.37V98.55h8.55V153.3z"/>
	<path class="st1" d="M75.98,425.85H47.27V277.98H31.39c-4.28,0-6.05-4.03-6.05-8.06c0-3.27,2.02-6.55,6.05-7.05
		c19.9-2.77,24.18-17.88,24.18-20.91h20.4v183.89L75.98,425.85L75.98,425.85z"/>
	<path class="st1" d="M202.18,388.57c0,35.02-20.15,40.56-51.89,40.56c-43.08,0-52.4-10.08-52.4-40.56V275.21
		c0-23.68,13.35-35.02,52.65-35.02c34.01,0,51.64,11.34,51.64,35.02V388.57z M173.21,301.91c0-26.2-4.28-33.5-22.42-33.5
		c-20.15,0-23.43,5.54-23.43,33.5v70.03c0,22.92,7.31,28.46,23.18,28.46c16.62,0,22.67-9.32,22.67-28.46V301.91z"/>
	<path class="st1" d="M327.12,388.57c0,35.02-20.15,40.56-51.89,40.56c-43.08,0-52.4-10.08-52.4-40.56V275.21
		c0-23.68,13.35-35.02,52.65-35.02c34.01,0,51.64,11.34,51.64,35.02L327.12,388.57L327.12,388.57z M298.15,301.91
		c0-26.2-4.28-33.5-22.42-33.5c-20.15,0-23.43,5.54-23.43,33.5v70.03c0,22.92,7.31,28.46,23.18,28.46
		c16.62,0,22.67-9.32,22.67-28.46V301.91z"/>
	<g>
		<g>
			<path class="st1" d="M67.37,29.81H23.35l19.74-18.13c1.26-1.15,3.29-1.15,4.55,0L67.37,29.81z"/>
		</g>
		<g>
			<path class="st1" d="M111.38,29.81H67.37l19.74-18.13c1.26-1.15,3.29-1.15,4.55,0L111.38,29.81z"/>
		</g>
		<g>
			<path class="st1" d="M155.4,29.81h-44.02l19.74-18.13c1.26-1.15,3.29-1.15,4.55,0L155.4,29.81z"/>
		</g>
		<g>
			<path class="st1" d="M199.42,29.81H155.4l19.74-18.13c1.26-1.15,3.29-1.15,4.55,0L199.42,29.81z"/>
		</g>
		<g>
			<path class="st1" d="M243.44,29.81h-44.02l19.74-18.13c1.26-1.15,3.29-1.15,4.55,0L243.44,29.81z"/>
		</g>
		<g>
			<path class="st1" d="M287.46,29.81h-44.02l19.74-18.13c1.26-1.15,3.29-1.15,4.55,0L287.46,29.81z"/>
		</g>
		<g>
			<path class="st1" d="M331.48,29.81h-44.02l19.74-18.13c1.26-1.15,3.29-1.15,4.55,0L331.48,29.81z"/>
		</g>
	</g>
	<g>
		<path class="st1" d="M56.76,219.45h-8.04v-17.27c0-0.85-0.28-1.41-1.27-1.41h-9.23c-0.63,0-1.27,0.71-1.27,1.41v17.27h-8.67
			v-51.46h8.67v23.55c0,0.71,0.49,1.34,1.13,1.34h9.38c0.78,0,1.27-0.42,1.27-1.48v-23.41h8.04v51.46L56.76,219.45L56.76,219.45z"/>
		<path class="st1" d="M92.07,195.42c0,22.14-2.82,25.31-15.16,25.31c-12.2,0-15.02-3.67-15.02-25.31v-27.49h8.04v27.64
			c0,15.72,1.97,17.06,6.91,17.06c5.15,0,7.12-1.06,7.12-17.06v-27.64h8.11V195.42z"/>
		<path class="st1" d="M127.67,219.45h-8.04l-13.11-30.31c-0.14-0.28-0.28-0.42-0.42-0.42s-0.28,0.14-0.28,0.42v30.31h-8.04v-51.46
			h8.04l13.04,30.6c0.07,0.21,0.28,0.35,0.42,0.35s0.35-0.14,0.35-0.35v-30.6h8.04V219.45z"/>
		<path class="st1" d="M152.69,219.45h-14.38v-42.3c0-0.99-0.56-1.83-1.76-1.83h-4.51v-7.4l20.66,0.07
			c8.81,0.07,15.09,3.53,15.09,25.87C167.78,213.53,162,219.45,152.69,219.45z M150.58,175.39h-3.24c-0.71,0-1.06,0.42-1.06,1.06
			v34.47c0,0.7,0.35,0.99,0.92,0.99h3.38c7.68,0,9.24-6.63,9.24-18.05C159.81,180.96,158.97,175.39,150.58,175.39z"/>
		<path class="st1" d="M206.9,219.45h-8.32l-10.08-19.32c-0.21-0.42-0.42-0.63-0.85-0.63h-1.62c-0.56,0-0.78,0.28-0.78,0.85v19.1
			h-7.9v-42.09c0-0.92-0.56-1.97-1.76-1.97h-4.51v-7.4h20.66c11.07,0,15.09,4.3,15.09,16c0,9.52-3.24,13.82-10.5,15.09L206.9,219.45
			z M189.63,175.39h-3.59c-0.49,0-0.78,0.21-0.78,0.85v14.8c0,0.42,0.21,0.85,0.78,0.85h3.59c7.68,0,9.24-2.11,9.24-7.9
			C198.87,177.93,198.02,175.39,189.63,175.39z"/>
		<path class="st1" d="M221.42,219.45h-8.04v-51.46h8.04V219.45z"/>
		<path class="st1" d="M258.5,219.45h-8.04l-13.11-30.31c-0.14-0.28-0.28-0.42-0.42-0.42s-0.28,0.14-0.28,0.42v30.31h-8.04v-51.46
			h8.04l13.04,30.6c0.07,0.21,0.28,0.35,0.42,0.35s0.35-0.14,0.35-0.35v-30.6h8.04V219.45z"/>
		<path class="st1" d="M285.29,181.81c0-6.2-2.19-6.84-6.56-6.84c-4.93,0-6.98,0.85-6.98,18.82c0,17.41,2.04,18.82,6.98,18.82
			c4.65,0,6.49-1.27,6.49-7.05v-4.02c0-0.49-0.28-0.78-0.71-0.78h-5.78v-8.04h14.66c0.14,1.9,0.21,3.95,0.21,5.99
			c0,19.03-3.24,22-14.88,22c-12.48,0-15.02-3.81-15.02-26.93c0-20.44,2.54-26.86,15.16-26.86c10.5,0,13.68,2.54,14.59,14.88
			L285.29,181.81L285.29,181.81z"/>
		<path class="st1" d="M328.57,207.12c0,8.39-4.44,13.61-15.51,13.61c-11.91,0-15.09-3.31-15.09-15.51h8.32
			c0,5.78,0.63,7.68,6.77,7.68c5.64,0,6.84-2.11,6.84-5.92c0-2.61-0.35-4.16-5.43-7.68l-4.72-3.31c-5.92-4.16-11.77-7.19-11.77-16
			c0-7.47,3.74-13.04,15.3-13.04c11.98,0,14.81,3.17,14.81,14.59h-8.18c0-6.34-2.4-6.84-6.84-6.84c-5.01,0-6.56,1.97-6.56,5.36
			c0,2.4,0.7,4.02,7.19,8.25l5.36,3.53c4.58,3.03,8.81,6.98,9.38,12.41C328.5,205.21,328.57,206.2,328.57,207.12z"/>
	</g>
</g>
</svg>
