<?xml version="1.0" encoding="utf-8"?>
<!-- Generator: Adobe Illustrator 24.3.1, SVG Export Plug-In . SVG Version: 6.00 Build 0)  -->
<svg version="1.1" id="Layer_1" xmlns="http://www.w3.org/2000/svg" xmlns:xlink="http://www.w3.org/1999/xlink" x="0px" y="0px"
	 viewBox="0 0 163.76 43.6" style="enable-background:new 0 0 163.76 43.6;" xml:space="preserve">
<style type="text/css">
	.st0{fill:#FFFFFF;}
	.st1{fill:none;}
</style>
<path class="st0" d="M15.07,20.09c0,3.31-1.76,5.38-6.13,5.38c-4.71,0-5.96-1.31-5.96-6.13h3.29c0,2.28,0.25,3.04,2.67,3.04
	c2.23,0,2.7-0.84,2.7-2.34c0-1.03-0.14-1.64-2.14-3.03l-1.87-1.31c-2.34-1.64-4.65-2.84-4.65-6.32c0-2.95,1.48-5.15,6.04-5.15
	c4.73,0,5.85,1.25,5.85,5.76h-3.23c0-2.51-0.95-2.7-2.7-2.7c-1.98,0-2.59,0.78-2.59,2.12c0,0.95,0.28,1.59,2.84,3.26l2.12,1.39
	c1.81,1.2,3.48,2.76,3.7,4.9C15.04,19.34,15.07,19.73,15.07,20.09"/>
<path class="st0" d="M23.57,7.56h-1.39c-0.19,0-0.33,0.14-0.33,0.33v5.88c0,0.17,0.11,0.31,0.25,0.31h1.48
	c3.03,0,3.65-0.83,3.65-3.12C27.22,8.56,26.89,7.56,23.57,7.56 M24.08,17.08h-2.23v7.88h-3.12V8.34c0-0.36-0.22-0.78-0.7-0.78h-1.78
	V4.63h8.16c4.37,0,5.96,1.7,5.96,6.32C30.37,15.52,28.48,17.08,24.08,17.08"/>
<rect x="32.74" y="4.63" class="st0" width="3.17" height="20.33"/>
<path class="st0" d="M50.38,20.09c0,3.31-1.76,5.38-6.13,5.38c-4.71,0-5.96-1.31-5.96-6.13h3.29c0,2.28,0.25,3.04,2.67,3.04
	c2.23,0,2.7-0.84,2.7-2.34c0-1.03-0.14-1.64-2.14-3.03l-1.87-1.31c-2.34-1.64-4.65-2.84-4.65-6.32c0-2.95,1.48-5.15,6.04-5.15
	c4.74,0,5.85,1.25,5.85,5.76h-3.23c0-2.51-0.95-2.7-2.7-2.7c-1.98,0-2.59,0.78-2.59,2.12c0,0.95,0.28,1.59,2.84,3.26l2.12,1.39
	c1.81,1.2,3.48,2.76,3.7,4.9C50.35,19.34,50.38,19.73,50.38,20.09"/>
<path class="st0" d="M56.93,6.35h-1.84c-0.12,0-0.22,0.12-0.22,0.22v1.68c0,0.1,0.1,0.22,0.2,0.22h1.52v0.98h-1.51
	c-0.11,0-0.21,0.1-0.21,0.23v2.05h-0.98V6.56c0-0.12-0.05-0.22-0.18-0.22h-0.58v-0.9h3.81V6.35z"/>
<path class="st0" d="M59.58,6.3c-0.62,0-0.85,0.1-0.85,2.3c0,2.12,0.22,2.3,0.85,2.3c0.64,0,0.86-0.15,0.86-2.3
	C60.44,6.34,60.29,6.3,59.58,6.3 M59.58,11.89c-1.52,0-1.83-0.46-1.83-3.28c0-2.49,0.31-3.28,1.85-3.28c1.62,0,1.83,0.5,1.83,3.28
	C61.43,11.51,61.13,11.89,59.58,11.89"/>
<path class="st0" d="M64.46,6.36h-0.44c-0.06,0-0.09,0.03-0.09,0.1v1.8c0,0.05,0.03,0.1,0.09,0.1h0.44c0.94,0,1.13-0.26,1.13-0.96
	C65.59,6.67,65.49,6.36,64.46,6.36 M66.57,11.73h-1.02l-1.23-2.36c-0.03-0.05-0.05-0.08-0.1-0.08h-0.2c-0.07,0-0.09,0.04-0.09,0.1
	v2.33h-0.96V6.6c0-0.11-0.07-0.24-0.22-0.24H62.2v-0.9h2.52c1.35,0,1.84,0.52,1.84,1.95c0,1.16-0.4,1.68-1.28,1.84L66.57,11.73z"/>
<path class="st0" d="M58.78,24.74H53.9v-10.1h4.88v1.46h-2.96c-0.18,0-0.35,0.19-0.35,0.36v2.69c0,0.17,0.14,0.35,0.32,0.35h2.43
	v1.57h-2.42c-0.19,0-0.33,0.17-0.33,0.37v1.37c0,0.15,0.08,0.35,0.32,0.35h2.98V24.74z"/>
<path class="st0" d="M66.32,24.74h-1.57l-2.57-5.94c-0.03-0.05-0.06-0.08-0.08-0.08c-0.03,0-0.06,0.03-0.06,0.08v5.94h-1.58V14.66
	h1.58l2.56,5.99c0.01,0.04,0.06,0.07,0.08,0.07c0.03,0,0.07-0.03,0.07-0.07v-5.99h1.57V24.74z"/>
<path class="st0" d="M9.29,39.65h-1.5v-3.23c0-0.16-0.05-0.26-0.24-0.26H5.82c-0.12,0-0.24,0.13-0.24,0.26v3.23H3.96v-9.63h1.62v4.4
	c0,0.13,0.09,0.25,0.21,0.25h1.75c0.14,0,0.24-0.08,0.24-0.28v-4.38h1.5V39.65z"/>
<path class="st0" d="M16.75,35.15c0,4.14-0.53,4.73-2.84,4.73c-2.28,0-2.81-0.69-2.81-4.73v-5.14h1.5v5.17
	c0,2.94,0.37,3.19,1.29,3.19c0.96,0,1.33-0.2,1.33-3.19v-5.17h1.52V35.15z"/>
<path class="st0" d="M24.27,39.65h-1.5l-2.45-5.67c-0.03-0.05-0.05-0.08-0.08-0.08c-0.03,0-0.05,0.03-0.05,0.08v5.67h-1.5v-9.63h1.5
	l2.44,5.72c0.01,0.04,0.05,0.07,0.08,0.07c0.03,0,0.07-0.03,0.07-0.07v-5.72h1.5V39.65z"/>
<path class="st0" d="M29.41,31.41H28.8c-0.13,0-0.2,0.08-0.2,0.2v6.45c0,0.13,0.07,0.19,0.17,0.19h0.63c1.44,0,1.73-1.24,1.73-3.38
	C31.13,32.45,30.98,31.41,29.41,31.41 M29.8,39.65h-2.69v-7.91c0-0.18-0.11-0.34-0.33-0.34h-0.84v-1.39l3.86,0.01
	c1.65,0.01,2.82,0.66,2.82,4.84C32.62,38.54,31.54,39.65,29.8,39.65"/>
<path class="st0" d="M37.57,31.41h-0.67c-0.09,0-0.14,0.04-0.14,0.16v2.77c0,0.08,0.04,0.16,0.14,0.16h0.67
	c1.44,0,1.73-0.4,1.73-1.48C39.29,31.88,39.13,31.41,37.57,31.41 M40.8,39.65h-1.56l-1.89-3.61c-0.04-0.08-0.08-0.12-0.16-0.12h-0.3
	c-0.11,0-0.14,0.05-0.14,0.16v3.57h-1.48v-7.87c0-0.17-0.11-0.37-0.33-0.37H34.1v-1.39h3.86c2.07,0,2.82,0.81,2.82,2.99
	c0,1.78-0.61,2.58-1.97,2.82L40.8,39.65z"/>
<rect x="11.11" y="-105.18" class="st1" width="156.06" height="35.67"/>
<rect x="42.86" y="30.02" class="st0" width="1.5" height="9.63"/>
<path class="st0" d="M52.16,39.65h-1.5l-2.45-5.67c-0.03-0.05-0.05-0.08-0.08-0.08c-0.03,0-0.05,0.03-0.05,0.08v5.67h-1.5v-9.63h1.5
	l2.44,5.72c0.01,0.04,0.05,0.07,0.08,0.07c0.03,0,0.07-0.03,0.07-0.07v-5.72h1.5V39.65z"/>
<path class="st0" d="M58.02,32.61c0-1.16-0.41-1.28-1.23-1.28c-0.92,0-1.31,0.16-1.31,3.52c0,3.26,0.38,3.52,1.31,3.52
	c0.87,0,1.21-0.24,1.21-1.32V36.3c0-0.09-0.05-0.15-0.13-0.15H56.8v-1.5h2.74c0.03,0.36,0.04,0.74,0.04,1.12
	c0,3.56-0.61,4.11-2.78,4.11c-2.33,0-2.81-0.71-2.81-5.04c0-3.82,0.47-5.02,2.83-5.02c1.97,0,2.56,0.47,2.73,2.78H58.02z"/>
<path class="st0" d="M66.57,37.33c0,1.57-0.83,2.54-2.9,2.54c-2.23,0-2.82-0.62-2.82-2.9h1.55c0,1.08,0.12,1.44,1.26,1.44
	c1.05,0,1.28-0.4,1.28-1.11c0-0.49-0.07-0.78-1.01-1.44l-0.88-0.62c-1.11-0.78-2.2-1.34-2.2-2.99c0-1.4,0.7-2.44,2.86-2.44
	c2.24,0,2.77,0.59,2.77,2.73h-1.53c0-1.19-0.45-1.28-1.28-1.28c-0.94,0-1.22,0.37-1.22,1c0,0.45,0.13,0.75,1.34,1.54l1,0.66
	c0.86,0.57,1.65,1.31,1.75,2.32C66.56,36.98,66.57,37.16,66.57,37.33"/>
<path class="st0" d="M159.05,4.87h-5.4v5.49c0,10.65-1.31,11.36-4.74,11.36c-3.29,0-4.6-0.85-4.6-11.36V4.87h-5.35v5.44
	c0,12.67,1.46,16.05,7.32,16.66v12.2h5.35V27.03c5.96-0.56,7.42-3.71,7.42-16.71V4.87z M136.24,4.92h-5.35v20.37
	c0,0.14-0.14,0.23-0.23,0.23c-0.09,0-0.24-0.09-0.28-0.23l-8.68-20.37h-5.35v34.26h5.35V19c0-0.19,0.09-0.28,0.19-0.28
	c0.09,0,0.19,0.09,0.28,0.28l8.73,20.18h5.35V4.92z M113.61,33.83h-10.14c-0.8,0-1.08-0.66-1.08-1.17v-4.65
	c0-0.7,0.47-1.27,1.13-1.27h8.21v-5.35h-8.26c-0.61,0-1.08-0.61-1.08-1.17v-9.15c0-0.56,0.56-1.22,1.17-1.22h10.04V4.87H97.05v34.31
	h16.57V33.83z M93.9,4.87h-5.35l-5.12,19.67c-0.14,0.56-0.42,0.84-0.66,0.84c-0.28,0-0.56-0.28-0.7-0.84L76.54,4.87h-5.35v34.36
	h5.35V27.45c0-0.47,0.19-0.75,0.38-0.75c0.14,0,0.33,0.19,0.42,0.56l3.61,11.97h3.43l3.43-12.11c0.05-0.23,0.24-0.38,0.38-0.38
	c0.19,0,0.38,0.19,0.38,0.56v11.92h5.35V4.87z"/>
</svg>
