<?xml version="1.0" encoding="utf-8"?>
<!-- Generator: Adobe Illustrator 24.3.1, SVG Export Plug-In . SVG Version: 6.00 Build 0)  -->
<svg version="1.1" id="Layer_1" xmlns="http://www.w3.org/2000/svg" xmlns:xlink="http://www.w3.org/1999/xlink" x="0px" y="0px"
	 viewBox="0 0 25.46 24.22" style="enable-background:new 0 0 25.46 24.22;" xml:space="preserve">
<style type="text/css">
	.st0{fill:#FC7644;}
	.st1{fill:#2E3337;}
</style>
<polygon class="st0" points="-609.05,429.55 -605.12,437.52 -596.32,438.8 -602.69,445.01 -601.18,453.77 -609.05,449.63 
	-616.92,453.77 -615.42,445.01 -621.78,438.8 -612.99,437.52 "/>
<polygon class="st0" points="12.73,0 16.67,7.97 25.46,9.25 19.1,15.46 20.6,24.22 12.73,20.08 4.86,24.22 6.37,15.46 0,9.25 
	8.8,7.97 "/>
<path class="st1" d="M-552.32-52.84c0,15.57-8.24,25.25-28.79,25.25c-22.11,0-28-6.15-28-28.79h15.44
	c0,10.73,1.18,14.26,12.56,14.26c10.47,0,12.69-3.93,12.69-10.99c0-4.84-0.65-7.72-10.07-14.26l-8.77-6.15
	c-10.99-7.72-21.85-13.35-21.85-29.7c0-13.87,6.93-24.21,28.39-24.21c22.24,0,27.48,5.89,27.48,27.08h-15.18
	c0-11.78-4.45-12.69-12.69-12.69c-9.29,0-12.17,3.66-12.17,9.94c0,4.45,1.31,7.46,13.35,15.31l9.94,6.54
	c8.51,5.63,16.35,12.95,17.4,23.03C-552.45-56.37-552.32-54.54-552.32-52.84z"/>
<path class="st1" d="M-510.02-66.97h-10.47v37.03h-14.65v-78.11c0-1.7-1.05-3.66-3.27-3.66h-8.37v-13.74h38.34
	c20.54,0,28,7.98,28,29.7C-480.45-74.3-489.35-66.97-510.02-66.97z M-512.38-111.72h-6.54c-0.92,0-1.57,0.65-1.57,1.57v27.61
	c0,0.79,0.52,1.44,1.18,1.44h6.94c14.26,0,17.14-3.93,17.14-14.65C-495.24-107.01-496.81-111.72-512.38-111.72z"/>
<path class="st1" d="M-454.38-29.94h-14.92v-95.51h14.92V-29.94z"/>
<path class="st1" d="M-386.44-52.84c0,15.57-8.24,25.25-28.79,25.25c-22.11,0-28-6.15-28-28.79h15.44
	c0,10.73,1.18,14.26,12.56,14.26c10.47,0,12.69-3.93,12.69-10.99c0-4.84-0.65-7.72-10.07-14.26l-8.77-6.15
	c-10.99-7.72-21.85-13.35-21.85-29.7c0-13.87,6.93-24.21,28.39-24.21c22.24,0,27.48,5.89,27.48,27.08h-15.18
	c0-11.78-4.45-12.69-12.69-12.69c-9.29,0-12.17,3.66-12.17,9.94c0,4.45,1.31,7.46,13.35,15.31l9.94,6.54
	c8.51,5.63,16.35,12.95,17.4,23.03C-386.57-56.37-386.44-54.54-386.44-52.84z"/>
<g>
	<path class="st1" d="M-355.68-117.4h-8.65c-0.57,0-1.05,0.57-1.05,1.05v7.92c0,0.48,0.44,1.01,0.93,1.01h7.15v4.61h-7.11
		c-0.52,0-0.97,0.48-0.97,1.09v9.62h-4.61v-24.28c0-0.57-0.24-1.01-0.85-1.01h-2.75v-4.24h17.9V-117.4z"/>
	<path class="st1" d="M-343.21-91.39c-7.15,0-8.6-2.18-8.6-15.43c0-11.72,1.45-15.39,8.69-15.39c7.6,0,8.61,2.34,8.61,15.39
		C-334.53-93.16-335.94-91.39-343.21-91.39z M-343.21-117.6c-2.91,0-4,0.48-4,10.79c0,9.98,1.05,10.79,4,10.79
		c3.03,0,4.04-0.69,4.04-10.79C-339.17-117.44-339.9-117.6-343.21-117.6z"/>
	<path class="st1" d="M-310.39-92.11h-4.77l-5.78-11.07c-0.12-0.24-0.24-0.36-0.48-0.36h-0.93c-0.32,0-0.44,0.16-0.44,0.48v10.95
		h-4.53v-24.12c0-0.52-0.32-1.13-1.01-1.13h-2.59v-4.24h11.84c6.34,0,8.65,2.46,8.65,9.17c0,5.45-1.86,7.92-6.02,8.65L-310.39-92.11
		z M-320.28-117.36h-2.06c-0.28,0-0.44,0.12-0.44,0.48v8.48c0,0.24,0.12,0.48,0.44,0.48h2.06c4.4,0,5.29-1.21,5.29-4.52
		C-314.99-115.91-315.48-117.36-320.28-117.36z"/>
</g>
<path class="st1" d="M-347-31h-22.91v-47.43H-347v6.88h-13.89c-0.84,0-1.62,0.91-1.62,1.69v12.65c0,0.78,0.65,1.62,1.49,1.62h11.42
	v7.4h-11.36c-0.91,0-1.56,0.78-1.56,1.75v6.42c0,0.71,0.39,1.62,1.49,1.62H-347V-31z"/>
<path class="st1" d="M-311.57-31h-7.4l-12.07-27.9c-0.13-0.26-0.26-0.39-0.39-0.39c-0.13,0-0.26,0.13-0.26,0.39V-31h-7.4v-47.37h7.4
	l12,28.16c0.06,0.19,0.26,0.32,0.39,0.32s0.32-0.13,0.32-0.32v-28.16h7.4V-31z"/>
<g>
	<path class="st1" d="M-579.48,39.05h-7.06V23.87c0-0.74-0.25-1.24-1.12-1.24h-8.12c-0.56,0-1.12,0.62-1.12,1.24v15.18h-7.62V-6.18
		h7.62v20.69c0,0.62,0.43,1.18,0.99,1.18h8.24c0.68,0,1.12-0.37,1.12-1.3V-6.18h7.06V39.05z"/>
	<path class="st1" d="M-544.43,17.92c0,19.45-2.48,22.24-13.32,22.24c-10.72,0-13.2-3.22-13.2-22.24V-6.24h7.06v24.29
		c0,13.82,1.73,14.99,6.07,14.99c4.52,0,6.26-0.93,6.26-14.99V-6.24h7.12V17.92z"/>
	<path class="st1" d="M-509.13,39.05h-7.06l-11.52-26.64c-0.12-0.25-0.25-0.37-0.37-0.37s-0.25,0.12-0.25,0.37v26.64h-7.06V-6.18
		h7.06l11.46,26.89c0.06,0.19,0.25,0.31,0.37,0.31s0.31-0.12,0.31-0.31V-6.18h7.06V39.05z"/>
	<path class="st1" d="M-483.12,39.05h-12.64V1.87c0-0.87-0.5-1.61-1.55-1.61h-3.97v-6.51l18.15,0.06
		c7.74,0.06,13.26,3.1,13.26,22.74C-469.86,33.84-474.95,39.05-483.12,39.05z M-484.98,0.32h-2.85c-0.62,0-0.93,0.37-0.93,0.93v30.3
		c0,0.62,0.31,0.87,0.81,0.87h2.97c6.75,0,8.12-5.82,8.12-15.86C-476.87,5.22-477.61,0.32-484.98,0.32z"/>
	<path class="st1" d="M-431.47,39.05h-7.31l-8.86-16.98c-0.19-0.37-0.37-0.56-0.74-0.56h-1.42c-0.5,0-0.68,0.25-0.68,0.74v16.79
		h-6.94V2.06c0-0.81-0.5-1.73-1.55-1.73h-3.97v-6.51h18.15c9.73,0,13.26,3.78,13.26,14.06c0,8.36-2.85,12.14-9.23,13.26
		L-431.47,39.05z M-446.65,0.32h-3.16c-0.43,0-0.68,0.19-0.68,0.74v13.01c0,0.37,0.19,0.74,0.68,0.74h3.16
		c6.75,0,8.12-1.86,8.12-6.94C-438.53,2.55-439.27,0.32-446.65,0.32z"/>
	<path class="st1" d="M-414.69,39.05h-7.06V-6.18h7.06V39.05z"/>
	<path class="st1" d="M-378.09,39.05h-7.06l-11.52-26.64c-0.12-0.25-0.25-0.37-0.37-0.37c-0.12,0-0.25,0.12-0.25,0.37v26.64h-7.06
		V-6.18h7.06l11.46,26.89c0.06,0.19,0.25,0.31,0.37,0.31c0.12,0,0.31-0.12,0.31-0.31V-6.18h7.06V39.05z"/>
	<path class="st1" d="M-350.53,5.96c0-5.45-1.92-6.01-5.76-6.01c-4.34,0-6.13,0.74-6.13,16.54c0,15.3,1.8,16.54,6.13,16.54
		c4.09,0,5.7-1.12,5.7-6.2v-3.53c0-0.43-0.25-0.68-0.62-0.68h-5.08v-7.06h12.89c0.12,1.67,0.19,3.47,0.19,5.27
		c0,16.73-2.85,19.33-13.07,19.33c-10.97,0-13.2-3.35-13.2-23.67c0-17.97,2.23-23.61,13.32-23.61c9.23,0,12.02,2.23,12.83,13.07
		H-350.53z"/>
	<path class="st1" d="M-310.39,28.17c0,7.37-3.9,11.95-13.62,11.95c-10.46,0-13.25-2.91-13.25-13.62h7.3c0,5.08,0.56,6.75,5.94,6.75
		c4.95,0,6-1.86,6-5.2c0-2.29-0.31-3.65-4.77-6.75l-4.15-2.91c-5.2-3.65-10.34-6.31-10.34-14.05c0-6.56,3.28-11.45,13.43-11.45
		c10.52,0,13,2.79,13,12.81H-318c0-5.57-2.1-6-6-6c-4.39,0-5.76,1.73-5.76,4.7c0,2.1,0.62,3.53,6.31,7.24l4.7,3.09
		c4.02,2.66,7.74,6.13,8.23,10.89C-310.45,26.5-310.39,27.36-310.39,28.17z"/>
</g>
<g>
	<path class="st0" d="M-560.94,238.48h-27.32V97.81h-15.1c-4.07,0-5.75-3.83-5.75-7.67c0-3.11,1.92-6.23,5.75-6.71
		c18.93-2.64,23.01-17.01,23.01-19.89h19.41V238.48z"/>
	<path class="st0" d="M-435.37,203.01c0,33.31-19.17,38.58-49.36,38.58c-40.98,0-49.84-9.59-49.84-38.58V95.17
		c0-22.53,12.7-33.31,50.08-33.31c32.35,0,49.12,10.78,49.12,33.31V203.01z M-462.93,120.58c0-24.92-4.07-31.87-21.33-31.87
		c-19.17,0-22.29,5.27-22.29,31.87v66.62c0,21.81,6.95,27.08,22.05,27.08c15.82,0,21.57-8.87,21.57-27.08V120.58z"/>
	<path class="st0" d="M-313.64,203.01c0,33.31-19.17,38.58-49.36,38.58c-40.98,0-49.84-9.59-49.84-38.58V95.17
		c0-22.53,12.7-33.31,50.08-33.31c32.35,0,49.12,10.78,49.12,33.31V203.01z M-341.2,120.58c0-24.92-4.07-31.87-21.33-31.87
		c-19.17,0-22.29,5.27-22.29,31.87v66.62c0,21.81,6.95,27.08,22.05,27.08c15.82,0,21.57-8.87,21.57-27.08V120.58z"/>
</g>
<g>
	<g>
		<path class="st0" d="M-570.08-149.97h-36.66l16.44-15.1c1.05-0.96,2.74-0.96,3.79,0L-570.08-149.97z"/>
	</g>
	<g>
		<path class="st0" d="M-533.42-149.97h-36.66l16.44-15.1c1.05-0.96,2.74-0.96,3.79,0L-533.42-149.97z"/>
	</g>
	<g>
		<path class="st0" d="M-496.77-149.97h-36.66l16.44-15.1c1.05-0.96,2.74-0.96,3.79,0L-496.77-149.97z"/>
	</g>
	<g>
		<path class="st0" d="M-460.11-149.97h-36.66l16.44-15.1c1.05-0.96,2.74-0.96,3.79,0L-460.11-149.97z"/>
	</g>
	<g>
		<path class="st0" d="M-423.46-149.97h-36.66l16.44-15.1c1.05-0.96,2.74-0.96,3.79,0L-423.46-149.97z"/>
	</g>
	<g>
		<path class="st0" d="M-386.8-149.97h-36.66l16.44-15.1c1.05-0.96,2.74-0.96,3.79,0L-386.8-149.97z"/>
	</g>
	<g>
		<path class="st0" d="M-350.14-149.97h-36.66l16.44-15.1c1.05-0.96,2.74-0.96,3.79,0L-350.14-149.97z"/>
	</g>
	<g>
		<path class="st0" d="M-313.49-149.97h-36.66l16.44-15.1c1.05-0.96,2.74-0.96,3.79,0L-313.49-149.97z"/>
	</g>
</g>
<rect x="-604.51" y="263.1" style="fill:none;" width="289.52" height="42.19"/>
<text transform="matrix(1 0 0 1 -529.5186 294.4883)" class="st1" style="font-family:'KonTikiJF-Aloha'; font-size:43px; letter-spacing:2;">24.-28. </text>
<g>
	<g>
		<path class="st0" d="M-490.89-275.46h-27.82l12.47-11.46c0.79-0.73,2.08-0.73,2.87,0L-490.89-275.46z"/>
	</g>
	<g>
		<path class="st0" d="M-463.07-275.46h-27.82l12.47-11.46c0.79-0.73,2.08-0.73,2.87,0L-463.07-275.46z"/>
	</g>
	<g>
		<path class="st0" d="M-435.25-275.46h-27.82l12.47-11.46c0.79-0.73,2.08-0.73,2.87,0L-435.25-275.46z"/>
	</g>
	<g>
		<path class="st0" d="M-407.43-275.46h-27.82l12.47-11.46c0.79-0.73,2.08-0.73,2.87,0L-407.43-275.46z"/>
	</g>
	<g>
		<path class="st0" d="M-379.61-275.46h-27.82l12.47-11.46c0.79-0.73,2.08-0.73,2.87,0L-379.61-275.46z"/>
	</g>
	<g>
		<path class="st0" d="M-351.79-275.46h-27.82l12.47-11.46c0.79-0.73,2.08-0.73,2.87,0L-351.79-275.46z"/>
	</g>
	<g>
		<path class="st0" d="M-323.96-275.46h-27.82l12.47-11.46c0.79-0.73,2.08-0.73,2.87,0L-323.96-275.46z"/>
	</g>
	<g>
		<path class="st0" d="M-296.14-275.46h-27.82l12.47-11.46c0.79-0.73,2.08-0.73,2.87,0L-296.14-275.46z"/>
	</g>
</g>
<rect x="624.42" y="-168.58" style="fill:none;" width="383.85" height="55.94"/>
<text transform="matrix(1 0 0 1 673.2697 -137.6053)" style="font-family:'KonTikiJF-Aloha'; font-size:42.4261px; letter-spacing:2;">24.-28. august</text>
<path d="M729.33-494.79c0,17.04-9.02,27.63-31.49,27.63c-24.19,0-30.63-6.73-30.63-31.49h16.89c0,11.74,1.29,15.6,13.74,15.6
	c11.45,0,13.89-4.3,13.89-12.02c0-5.3-0.72-8.45-11.02-15.6l-9.59-6.73c-12.02-8.45-23.91-14.6-23.91-32.5
	c0-15.17,7.59-26.48,31.06-26.48c24.34,0,30.06,6.44,30.06,29.63h-16.61c0-12.88-4.87-13.89-13.89-13.89
	c-10.16,0-13.31,4.01-13.31,10.88c0,4.87,1.43,8.16,14.6,16.75l10.88,7.16c9.3,6.16,17.89,14.17,19.04,25.19
	C729.19-498.65,729.33-496.65,729.33-494.79z"/>
<path d="M771.93-510.25h-11.45v40.51h-16.03v-85.46c0-1.86-1.15-4.01-3.58-4.01h-9.16v-15.03h41.94c22.47,0,30.63,8.73,30.63,32.5
	C804.28-518.27,794.55-510.25,771.93-510.25z M769.35-559.21h-7.16c-1,0-1.72,0.72-1.72,1.72v30.2c0,0.86,0.57,1.58,1.29,1.58h7.59
	c15.6,0,18.75-4.29,18.75-16.03C788.1-554.05,786.39-559.21,769.35-559.21z"/>
<path d="M829.13-469.74h-16.32v-104.5h16.32V-469.74z"/>
<path d="M899.77-494.79c0,17.04-9.02,27.63-31.49,27.63c-24.19,0-30.63-6.73-30.63-31.49h16.89c0,11.74,1.29,15.6,13.74,15.6
	c11.45,0,13.89-4.3,13.89-12.02c0-5.3-0.72-8.45-11.02-15.6l-9.59-6.73c-12.02-8.45-23.91-14.6-23.91-32.5
	c0-15.17,7.59-26.48,31.06-26.48c24.34,0,30.06,6.44,30.06,29.63h-16.61c0-12.88-4.87-13.89-13.89-13.89
	c-10.16,0-13.31,4.01-13.31,10.88c0,4.87,1.43,8.16,14.6,16.75l10.88,7.16c9.3,6.16,17.89,14.17,19.04,25.19
	C899.63-498.65,899.77-496.65,899.77-494.79z"/>
<path d="M691.57-402.08h-7.74v-16.64c0-0.82-0.27-1.36-1.22-1.36h-8.9c-0.61,0-1.22,0.68-1.22,1.36v16.64h-8.35v-49.58h8.35v22.69
	c0,0.68,0.48,1.29,1.09,1.29h9.03c0.75,0,1.22-0.41,1.22-1.43v-22.55h7.74V-402.08z"/>
<path d="M725.84-425.24c0,21.33-2.72,24.38-14.6,24.38c-11.75,0-14.47-3.53-14.47-24.38v-26.49h7.74v26.63
	c0,15.15,1.9,16.44,6.66,16.44c4.96,0,6.86-1.02,6.86-16.44v-26.63h7.81V-425.24z"/>
<path d="M760.38-402.08h-7.74L740-431.29c-0.14-0.27-0.27-0.41-0.41-0.41s-0.27,0.14-0.27,0.41v29.21h-7.74v-49.58h7.74l12.57,29.48
	c0.07,0.2,0.27,0.34,0.41,0.34c0.14,0,0.34-0.14,0.34-0.34v-29.48h7.74V-402.08z"/>
<path d="M784.73-402.08h-13.86v-40.75c0-0.95-0.54-1.77-1.7-1.77h-4.35v-7.13l19.9,0.07c8.49,0.07,14.54,3.4,14.54,24.93
	C799.27-407.78,793.7-402.08,784.73-402.08z M782.69-444.53h-3.12c-0.68,0-1.02,0.41-1.02,1.02v33.21c0,0.68,0.34,0.95,0.88,0.95
	h3.26c7.4,0,8.9-6.38,8.9-17.39C791.59-439.16,790.78-444.53,782.69-444.53z"/>
<path d="M837.2-402.08h-8.01l-9.71-18.61c-0.2-0.41-0.41-0.61-0.81-0.61h-1.56c-0.54,0-0.75,0.27-0.75,0.81v18.41h-7.61v-40.55
	c0-0.88-0.54-1.9-1.7-1.9h-4.35v-7.13h19.9c10.66,0,14.54,4.14,14.54,15.42c0,9.17-3.12,13.31-10.12,14.54L837.2-402.08z
	 M820.56-444.53h-3.46c-0.48,0-0.75,0.2-0.75,0.82v14.26c0,0.41,0.2,0.82,0.75,0.82h3.46c7.4,0,8.9-2.04,8.9-7.61
	C829.46-442.09,828.64-444.53,820.56-444.53z"/>
<path d="M851.43-402.08h-7.74v-49.58h7.74V-402.08z"/>
<path d="M887.39-402.08h-7.74l-12.63-29.21c-0.14-0.27-0.27-0.41-0.41-0.41s-0.27,0.14-0.27,0.41v29.21h-7.74v-49.58h7.74
	l12.57,29.48c0.07,0.2,0.27,0.34,0.41,0.34c0.14,0,0.34-0.14,0.34-0.34v-29.48h7.74V-402.08z"/>
<path d="M913.44-438.35c0-5.98-2.11-6.59-6.32-6.59c-4.75,0-6.72,0.82-6.72,18.14c0,16.78,1.97,18.13,6.72,18.13
	c4.48,0,6.25-1.22,6.25-6.79v-3.87c0-0.48-0.27-0.75-0.68-0.75h-5.57v-7.74h14.13c0.14,1.83,0.2,3.8,0.2,5.77
	c0,18.34-3.12,21.19-14.33,21.19c-12.02,0-14.47-3.67-14.47-25.95c0-19.7,2.44-25.88,14.6-25.88c10.12,0,13.18,2.44,14.06,14.33
	H913.44z"/>
<path d="M955.39-413.97c0,8.08-4.28,13.11-14.94,13.11c-11.48,0-14.54-3.19-14.54-14.94h8.01c0,5.57,0.61,7.4,6.52,7.4
	c5.43,0,6.59-2.04,6.59-5.71c0-2.51-0.34-4.01-5.23-7.4l-4.55-3.19c-5.71-4.01-11.34-6.93-11.34-15.42c0-7.2,3.6-12.57,14.74-12.57
	c11.55,0,14.26,3.06,14.26,14.06h-7.88c0-6.11-2.31-6.59-6.59-6.59c-4.82,0-6.32,1.9-6.32,5.16c0,2.31,0.68,3.87,6.93,7.95l5.16,3.4
	c4.42,2.92,8.49,6.72,9.03,11.95C955.32-415.8,955.39-414.85,955.39-413.97z"/>
<path class="st0" d="M709.93-195.66h-28.07v-144.53h-15.51c-4.18,0-5.91-3.94-5.91-7.88c0-3.2,1.97-6.4,5.91-6.89
	c19.45-2.71,23.64-17.48,23.64-20.44h19.94V-195.66z"/>
<path class="st0" d="M833.27-232.1c0,34.22-19.7,39.64-50.72,39.64c-42.1,0-51.21-9.85-51.21-39.64v-110.79
	c0-23.15,13.05-34.22,51.46-34.22c33.24,0,50.47,11.08,50.47,34.22V-232.1z M804.96-316.8c0-25.61-4.18-32.75-21.91-32.75
	c-19.7,0-22.9,5.42-22.9,32.75v68.45c0,22.4,7.14,27.82,22.65,27.82c16.25,0,22.16-9.11,22.16-27.82V-316.8z"/>
<path class="st0" d="M955.39-232.1c0,34.22-19.7,39.64-50.72,39.64c-42.1,0-51.21-9.85-51.21-39.64v-110.79
	c0-23.15,13.05-34.22,51.46-34.22c33.24,0,50.47,11.08,50.47,34.22V-232.1z M927.07-316.8c0-25.61-4.18-32.75-21.91-32.75
	c-19.7,0-22.9,5.42-22.9,32.75v68.45c0,22.4,7.14,27.82,22.65,27.82c16.25,0,22.16-9.11,22.16-27.82V-316.8z"/>
<g>
	<g>
		<path class="st0" d="M709.65-602.2h-41.5l18.61-17.09c1.18-1.09,3.1-1.09,4.28,0L709.65-602.2z"/>
	</g>
	<g>
		<path class="st0" d="M751.14-602.2h-41.5l18.61-17.09c1.18-1.09,3.1-1.09,4.28,0L751.14-602.2z"/>
	</g>
	<g>
		<path class="st0" d="M792.64-602.2h-41.5l18.61-17.09c1.18-1.09,3.1-1.09,4.28,0L792.64-602.2z"/>
	</g>
	<g>
		<path class="st0" d="M834.13-602.2h-41.5l18.61-17.09c1.18-1.09,3.1-1.09,4.28,0L834.13-602.2z"/>
	</g>
	<g>
		<path class="st0" d="M875.63-602.2h-41.5l18.61-17.09c1.18-1.09,3.1-1.09,4.28,0L875.63-602.2z"/>
	</g>
	<g>
		<path class="st0" d="M917.13-602.2h-41.5l18.61-17.09c1.18-1.09,3.1-1.09,4.28,0L917.13-602.2z"/>
	</g>
	<g>
		<path class="st0" d="M958.62-602.2h-41.5l18.61-17.09c1.18-1.09,3.1-1.09,4.28,0L958.62-602.2z"/>
	</g>
</g>
<g>
	<path d="M924.67-485.17v9.17c0,0.56,0.6,1.07,1.11,1.07h8.45c0.51,0,1.07-0.43,1.07-0.99v-7.55h4.89v7.5c0,0.6,0.51,1.07,1.16,1.07
		h10.2v4.84h-31.34v-15.13H924.67z"/>
	<path d="M952.33-495.12c0,7.59-2.32,9.13-16.38,9.13c-12.43,0-16.33-1.54-16.33-9.22c0-8.06,2.49-9.13,16.33-9.13
		C950.44-504.34,952.33-502.84,952.33-495.12z M924.5-495.12c0,3.09,0.51,4.24,11.45,4.24c10.59,0,11.45-1.11,11.45-4.24
		c0-3.22-0.73-4.29-11.45-4.29C924.67-499.41,924.5-498.63,924.5-495.12z"/>
	<path d="M951.55-525.22v5.23l-11.79,6.13c-0.21,0.09-0.34,0.21-0.34,0.47v0.94c0,0.21,0.17,0.39,0.39,0.39h11.75v4.8h-31.3V-516
		c0-6.77,2.62-9.22,9.73-9.22c5.79,0,8.4,1.97,9.18,6.43L951.55-525.22z M924.76-514.71v2.02c0,0.43,0.13,0.64,0.52,0.64h9
		c0.26,0,0.52-0.13,0.52-0.47v-2.19c0-4.67-1.29-5.62-4.8-5.62C926.3-520.33,924.76-519.82,924.76-514.71z"/>
	<path d="M951.55-554.37v15.13h-31.34v-15.13h4.46v9.18c0,0.56,0.6,1.07,1.11,1.07h8.45c0.51,0,1.07-0.43,1.07-0.99v-7.55h4.89v7.5
		c0,0.6,0.51,1.03,1.16,1.03h4.24c0.47,0,1.07-0.26,1.07-0.99v-9.26H951.55z"/>
	<path d="M951.55-575.04v4.89l-18.61,8.06c-0.09,0.04-0.13,0.13-0.13,0.17c0,0.09,0.04,0.17,0.17,0.17h18.57v4.89h-31.3v-4.89
		l18.82-8.06c0.09-0.04,0.17-0.13,0.17-0.21c0-0.04-0.09-0.13-0.17-0.13h-18.82v-4.89H951.55z"/>
</g>
</svg>
