<?xml version="1.0" encoding="utf-8"?>
<!-- Generator: Adobe Illustrator 24.3.1, SVG Export Plug-In . SVG Version: 6.00 Build 0)  -->
<svg version="1.1" id="Layer_1" xmlns="http://www.w3.org/2000/svg" xmlns:xlink="http://www.w3.org/1999/xlink" x="0px" y="0px"
	 viewBox="0 0 163.76 43.6" style="enable-background:new 0 0 163.76 43.6;" xml:space="preserve">
<style type="text/css">
	.st0{fill:#2E3337;}
</style>
<path class="st0" d="M5.72-109.02c0,3.31-1.76,5.38-6.13,5.38c-4.71,0-5.96-1.31-5.96-6.13h3.29c0,2.28,0.25,3.04,2.67,3.04
	c2.23,0,2.7-0.84,2.7-2.34c0-1.03-0.14-1.64-2.14-3.03l-1.87-1.31c-2.34-1.64-4.65-2.84-4.65-6.32c0-2.95,1.48-5.15,6.04-5.15
	c4.73,0,5.85,1.25,5.85,5.76H2.29c0-2.51-0.95-2.7-2.7-2.7c-1.98,0-2.59,0.78-2.59,2.12c0,0.95,0.28,1.59,2.84,3.26l2.12,1.39
	c1.81,1.2,3.48,2.76,3.7,4.9C5.69-109.77,5.72-109.38,5.72-109.02"/>
<path class="st0" d="M14.22-121.55h-1.39c-0.19,0-0.33,0.14-0.33,0.33v5.88c0,0.17,0.11,0.31,0.25,0.31h1.48
	c3.03,0,3.65-0.83,3.65-3.12C17.87-120.55,17.54-121.55,14.22-121.55 M14.73-112.03H12.5v7.88H9.38v-16.62
	c0-0.36-0.22-0.78-0.7-0.78H6.9v-2.93h8.16c4.37,0,5.96,1.7,5.96,6.32C21.02-113.59,19.13-112.03,14.73-112.03"/>
<rect x="23.39" y="-124.48" class="st0" width="3.17" height="20.33"/>
<path class="st0" d="M41.03-109.02c0,3.31-1.76,5.38-6.13,5.38c-4.71,0-5.96-1.31-5.96-6.13h3.29c0,2.28,0.25,3.04,2.67,3.04
	c2.23,0,2.7-0.84,2.7-2.34c0-1.03-0.14-1.64-2.14-3.03l-1.87-1.31c-2.34-1.64-4.65-2.84-4.65-6.32c0-2.95,1.48-5.15,6.04-5.15
	c4.74,0,5.85,1.25,5.85,5.76H37.6c0-2.51-0.95-2.7-2.7-2.7c-1.98,0-2.59,0.78-2.59,2.12c0,0.95,0.28,1.59,2.84,3.26l2.12,1.39
	c1.81,1.2,3.48,2.76,3.7,4.9C41-109.77,41.03-109.38,41.03-109.02"/>
<path class="st0" d="M47.58-122.76h-1.84c-0.12,0-0.22,0.12-0.22,0.22v1.68c0,0.1,0.1,0.22,0.2,0.22h1.52v0.98h-1.51
	c-0.11,0-0.21,0.1-0.21,0.23v2.05h-0.98v-5.17c0-0.12-0.05-0.22-0.18-0.22h-0.58v-0.9h3.81v0.91H47.58z"/>
<path class="st0" d="M50.23-122.81c-0.62,0-0.85,0.1-0.85,2.3c0,2.12,0.22,2.3,0.85,2.3c0.64,0,0.86-0.15,0.86-2.3
	C51.09-122.77,50.94-122.81,50.23-122.81 M50.23-117.22c-1.52,0-1.83-0.46-1.83-3.28c0-2.49,0.31-3.28,1.85-3.28
	c1.62,0,1.83,0.5,1.83,3.28C52.08-117.6,51.78-117.22,50.23-117.22"/>
<path class="st0" d="M55.11-122.75h-0.44c-0.06,0-0.09,0.03-0.09,0.1v1.8c0,0.05,0.03,0.1,0.09,0.1h0.44c0.94,0,1.13-0.26,1.13-0.96
	C56.24-122.44,56.14-122.75,55.11-122.75 M57.22-117.38H56.2l-1.23-2.36c-0.03-0.05-0.05-0.08-0.1-0.08h-0.2
	c-0.07,0-0.09,0.04-0.09,0.1v2.33h-0.96v-5.12c0-0.11-0.07-0.24-0.22-0.24h-0.55v-0.9h2.52c1.35,0,1.84,0.52,1.84,1.95
	c0,1.16-0.4,1.68-1.28,1.84L57.22-117.38z"/>
<path class="st0" d="M49.43-104.37h-4.88v-10.1h4.88v1.46h-2.96c-0.18,0-0.35,0.19-0.35,0.36v2.69c0,0.17,0.14,0.35,0.32,0.35h2.43
	v1.57h-2.42c-0.19,0-0.33,0.17-0.33,0.37v1.37c0,0.15,0.08,0.35,0.32,0.35h2.98L49.43-104.37L49.43-104.37z"/>
<path class="st0" d="M56.97-104.37H55.4l-2.57-5.94c-0.03-0.05-0.06-0.08-0.08-0.08c-0.03,0-0.06,0.03-0.06,0.08v5.94h-1.58v-10.08
	h1.58l2.56,5.99c0.01,0.04,0.06,0.07,0.08,0.07c0.03,0,0.07-0.03,0.07-0.07v-5.99h1.57V-104.37z"/>
<path class="st0" d="M-0.06-89.46h-1.5v-3.23c0-0.16-0.05-0.26-0.24-0.26h-1.73c-0.12,0-0.24,0.13-0.24,0.26v3.23h-1.62v-9.63h1.62
	v4.4c0,0.13,0.09,0.25,0.21,0.25h1.75c0.14,0,0.24-0.08,0.24-0.28v-4.38h1.5v9.64H-0.06z"/>
<path class="st0" d="M7.4-93.96c0,4.14-0.53,4.73-2.84,4.73c-2.28,0-2.81-0.69-2.81-4.73v-5.14h1.5v5.17c0,2.94,0.37,3.19,1.29,3.19
	c0.96,0,1.33-0.2,1.33-3.19v-5.17h1.52v5.14H7.4z"/>
<path class="st0" d="M14.92-89.46h-1.5l-2.45-5.67c-0.03-0.05-0.05-0.08-0.08-0.08s-0.05,0.03-0.05,0.08v5.67h-1.5v-9.63h1.5
	l2.44,5.72c0.01,0.04,0.05,0.07,0.08,0.07s0.07-0.03,0.07-0.07v-5.72h1.5v9.63H14.92z"/>
<path class="st0" d="M20.06-97.7h-0.61c-0.13,0-0.2,0.08-0.2,0.2v6.45c0,0.13,0.07,0.19,0.17,0.19h0.63c1.44,0,1.73-1.24,1.73-3.38
	C21.78-96.66,21.63-97.7,20.06-97.7 M20.45-89.46h-2.69v-7.91c0-0.18-0.11-0.34-0.33-0.34h-0.84v-1.39l3.86,0.01
	c1.65,0.01,2.82,0.66,2.82,4.84C23.27-90.57,22.19-89.46,20.45-89.46"/>
<path class="st0" d="M28.22-97.7h-0.67c-0.09,0-0.14,0.04-0.14,0.16v2.77c0,0.08,0.04,0.16,0.14,0.16h0.67
	c1.44,0,1.73-0.4,1.73-1.48C29.94-97.23,29.78-97.7,28.22-97.7 M31.45-89.46h-1.56L28-93.07c-0.04-0.08-0.08-0.12-0.16-0.12h-0.3
	c-0.11,0-0.14,0.05-0.14,0.16v3.57h-1.48v-7.87c0-0.17-0.11-0.37-0.33-0.37h-0.84v-1.39h3.86c2.07,0,2.82,0.81,2.82,2.99
	c0,1.78-0.61,2.58-1.97,2.82L31.45-89.46z"/>
<rect x="33.51" y="-99.09" class="st0" width="1.5" height="9.63"/>
<path class="st0" d="M42.81-89.46h-1.5l-2.45-5.67c-0.03-0.05-0.05-0.08-0.08-0.08c-0.03,0-0.05,0.03-0.05,0.08v5.67h-1.5v-9.63h1.5
	l2.44,5.72c0.01,0.04,0.05,0.07,0.08,0.07c0.03,0,0.07-0.03,0.07-0.07v-5.72h1.5L42.81-89.46L42.81-89.46z"/>
<path class="st0" d="M48.67-96.5c0-1.16-0.41-1.28-1.23-1.28c-0.92,0-1.31,0.16-1.31,3.52c0,3.26,0.38,3.52,1.31,3.52
	c0.87,0,1.21-0.24,1.21-1.32v-0.75c0-0.09-0.05-0.15-0.13-0.15h-1.07v-1.5h2.74c0.03,0.36,0.04,0.74,0.04,1.12
	c0,3.56-0.61,4.11-2.78,4.11c-2.33,0-2.81-0.71-2.81-5.04c0-3.82,0.47-5.02,2.83-5.02c1.97,0,2.56,0.47,2.73,2.78h-1.53V-96.5z"/>
<path class="st0" d="M57.22-91.78c0,1.57-0.83,2.54-2.9,2.54c-2.23,0-2.82-0.62-2.82-2.9h1.55c0,1.08,0.12,1.44,1.26,1.44
	c1.05,0,1.28-0.4,1.28-1.11c0-0.49-0.07-0.78-1.01-1.44l-0.88-0.62c-1.11-0.78-2.2-1.34-2.2-2.99c0-1.4,0.7-2.44,2.86-2.44
	c2.24,0,2.77,0.59,2.77,2.73H55.6c0-1.19-0.45-1.28-1.28-1.28c-0.94,0-1.22,0.37-1.22,1c0,0.45,0.13,0.75,1.34,1.54l1,0.66
	c0.86,0.57,1.65,1.31,1.75,2.32C57.21-92.13,57.22-91.95,57.22-91.78"/>
<path class="st0" d="M151.7-124.24h-5.4v5.49c0,10.65-1.31,11.36-4.74,11.36c-3.29,0-4.6-0.85-4.6-11.36v-5.49h-5.35v5.44
	c0,12.67,1.46,16.05,7.32,16.66v12.2h5.35v-12.14c5.96-0.56,7.42-3.71,7.42-16.71V-124.24z M128.89-124.19h-5.35v20.37
	c0,0.14-0.14,0.23-0.23,0.23s-0.24-0.09-0.28-0.23l-8.68-20.37H109v34.26h5.35v-20.18c0-0.19,0.09-0.28,0.19-0.28
	c0.09,0,0.19,0.09,0.28,0.28l8.73,20.18h5.35v-34.26H128.89z M106.26-95.28H96.12c-0.8,0-1.08-0.66-1.08-1.17v-4.65
	c0-0.7,0.47-1.27,1.13-1.27h8.21v-5.35h-8.26c-0.61,0-1.08-0.61-1.08-1.17v-9.15c0-0.56,0.56-1.22,1.17-1.22h10.04v-4.98H89.7v34.31
	h16.57v-5.35H106.26z M86.55-124.24H81.2l-5.12,19.67c-0.14,0.56-0.42,0.84-0.66,0.84c-0.28,0-0.56-0.28-0.7-0.84l-5.53-19.67h-5.35
	v34.36h5.35v-11.78c0-0.47,0.19-0.75,0.38-0.75c0.14,0,0.33,0.19,0.42,0.56l3.61,11.97h3.43l3.43-12.11
	c0.05-0.23,0.24-0.38,0.38-0.38c0.19,0,0.38,0.19,0.38,0.56v11.92h5.35v-34.35H86.55z"/>
<g>
	<path class="st0" d="M16.45,20.11c0,3.29-1.74,5.33-6.08,5.33c-4.67,0-5.91-1.3-5.91-6.08h3.26c0,2.27,0.25,3.01,2.65,3.01
		c2.21,0,2.68-0.83,2.68-2.32c0-1.02-0.14-1.63-2.13-3.01l-1.85-1.3c-2.32-1.63-4.62-2.82-4.62-6.27c0-2.93,1.46-5.11,6-5.11
		c4.7,0,5.8,1.24,5.8,5.72h-3.21c0-2.49-0.94-2.68-2.68-2.68c-1.96,0-2.57,0.77-2.57,2.1c0,0.94,0.28,1.58,2.82,3.23l2.1,1.38
		c1.8,1.19,3.45,2.74,3.68,4.86C16.42,19.36,16.45,19.75,16.45,20.11z"/>
	<path class="st0" d="M24.96,17.12h-2.21v7.82h-3.1V8.44c0-0.36-0.22-0.77-0.69-0.77H17.2v-2.9h8.1c4.34,0,5.91,1.69,5.91,6.27
		C31.21,15.57,29.33,17.12,24.96,17.12z M24.47,7.67h-1.38c-0.19,0-0.33,0.14-0.33,0.33v5.83c0,0.17,0.11,0.3,0.25,0.3h1.46
		c3.01,0,3.62-0.83,3.62-3.1C28.09,8.66,27.76,7.67,24.47,7.67z"/>
	<path class="st0" d="M36.3,24.94h-3.15V4.77h3.15V24.94z"/>
	<path class="st0" d="M50.23,20.11c0,3.29-1.74,5.33-6.08,5.33c-4.67,0-5.91-1.3-5.91-6.08h3.26c0,2.27,0.25,3.01,2.65,3.01
		c2.21,0,2.68-0.83,2.68-2.32c0-1.02-0.14-1.63-2.13-3.01l-1.85-1.3c-2.32-1.63-4.62-2.82-4.62-6.27c0-2.93,1.46-5.11,6-5.11
		c4.7,0,5.8,1.24,5.8,5.72h-3.21c0-2.49-0.94-2.68-2.68-2.68c-1.96,0-2.57,0.77-2.57,2.1c0,0.94,0.28,1.58,2.82,3.23l2.1,1.38
		c1.8,1.19,3.45,2.74,3.68,4.86C50.2,19.36,50.23,19.75,50.23,20.11z"/>
</g>
<g>
	<path class="st0" d="M56.92,5.97h-2.18c-0.13,0-0.25,0.14-0.25,0.27v2.01c0,0.12,0.1,0.25,0.23,0.25h1.8v1.16h-1.78
		c-0.14,0-0.25,0.12-0.25,0.28v2.43h-1.15V4.91h3.6V5.97z"/>
	<path class="st0" d="M59.28,12.54c-1.81,0-2.17-0.55-2.17-3.9c0-2.96,0.37-3.89,2.19-3.89c1.92,0,2.17,0.59,2.17,3.89
		C61.48,12.1,61.12,12.54,59.28,12.54z M59.28,5.93c-0.73,0-1.01,0.12-1.01,2.72c0,2.52,0.27,2.72,1.01,2.72
		c0.76,0,1.02-0.17,1.02-2.72C60.3,5.97,60.12,5.93,59.28,5.93z"/>
	<path class="st0" d="M66.45,12.36H65.2l-1.46-2.8c-0.02-0.05-0.05-0.08-0.11-0.08h-0.22c-0.05,0-0.09,0.04-0.09,0.09v2.79h-1.14
		V4.92h2.08c1.61,0,2.19,0.62,2.19,2.32c0,1.38-0.47,2-1.53,2.18L66.45,12.36z M63.95,5.99h-0.48c-0.1,0-0.15,0.03-0.15,0.12v2.14
		c0,0.06,0.03,0.12,0.11,0.12h0.52c1.11,0,1.34-0.31,1.34-1.14C65.28,6.35,65.16,5.99,63.95,5.99z"/>
</g>
<g>
	<path class="st0" d="M58.74,24.94h-5.42V13.72h5.42v1.6h-3.29c-0.2,0-0.38,0.21-0.38,0.4v3.03c0,0.18,0.15,0.38,0.35,0.38h2.7v1.75
		h-2.69c-0.21,0-0.37,0.18-0.37,0.41v1.52c0,0.17,0.09,0.38,0.35,0.38h3.32V24.94z"/>
	<path class="st0" d="M66.14,24.94h-1.75l-2.89-6.66c-0.02-0.03-0.05-0.05-0.06-0.05c-0.03,0-0.06,0.02-0.06,0.06v6.65h-1.75V13.73
		h1.75l2.89,6.74c0.02,0.03,0.05,0.06,0.08,0.06c0.01,0,0.05-0.03,0.05-0.06v-6.74h1.75V24.94z"/>
</g>
<g>
	<path class="st0" d="M11.06,38.86H9.31v-3.75c0-0.18-0.06-0.31-0.28-0.31H7.03c-0.14,0-0.28,0.15-0.28,0.31v3.75H4.87V27.68h1.88
		v5.13c0,0.15,0.11,0.29,0.25,0.29h2.04c0.17,0,0.28-0.09,0.28-0.32v-5.1h1.75V38.86z"/>
	<path class="st0" d="M18.46,33.64c0,4.81-0.61,5.5-3.29,5.5c-2.64,0-3.26-0.8-3.26-5.5v-5.97h1.75v6.01c0,3.42,0.43,3.71,1.52,3.71
		c1.12,0,1.53-0.23,1.53-3.71v-6.01h1.76V33.64z"/>
	<path class="st0" d="M25.97,38.86h-1.75l-2.88-6.65c-0.01-0.03-0.05-0.05-0.06-0.05c-0.03,0-0.06,0.02-0.06,0.06v6.63h-1.75V27.68
		h1.75l2.88,6.73c0.01,0.03,0.05,0.06,0.08,0.06c0.02,0,0.05-0.03,0.05-0.06v-6.73h1.75V38.86z"/>
	<path class="st0" d="M30.24,38.86H27.1V27.68h3.14c1.9,0,3.28,0.75,3.28,5.62C33.52,37.57,32.27,38.86,30.24,38.86z M29.78,29.28
		h-0.74c-0.12,0-0.2,0.06-0.2,0.18v7.58c0,0.11,0.06,0.17,0.15,0.17h0.78c1.67,0,1.99-1.44,1.99-3.92
		C31.78,30.49,31.61,29.28,29.78,29.28z"/>
	<path class="st0" d="M40.97,38.86H39.1l-2.19-4.21c-0.03-0.08-0.08-0.12-0.17-0.12H36.4c-0.08,0-0.14,0.06-0.14,0.14v4.2h-1.72
		V27.68h3.13c2.42,0,3.29,0.93,3.29,3.48c0,2.07-0.7,3-2.3,3.28L40.97,38.86z M37.22,29.28H36.5c-0.15,0-0.23,0.05-0.23,0.18v3.22
		c0,0.09,0.05,0.18,0.17,0.18h0.78c1.67,0,2.01-0.46,2.01-1.72C39.22,29.84,39.04,29.28,37.22,29.28z"/>
	<path class="st0" d="M43.82,38.86h-1.75V27.68h1.75V38.86z"/>
	<path class="st0" d="M51.65,38.86H49.9l-2.88-6.65c-0.02-0.03-0.05-0.05-0.06-0.05c-0.03,0-0.06,0.02-0.06,0.06v6.63h-1.75V27.68
		h1.75l2.88,6.73c0.02,0.03,0.05,0.06,0.08,0.06c0.01,0,0.05-0.03,0.05-0.06v-6.73h1.75V38.86z"/>
	<path class="st0" d="M57.3,30.68c0-1.35-0.47-1.49-1.42-1.49c-1.07,0-1.52,0.18-1.52,4.09c0,3.78,0.46,4.09,1.52,4.09
		c1.01,0,1.41-0.28,1.41-1.53v-0.8c0-0.15-0.06-0.25-0.21-0.25h-1.19v-1.75h3.19c0.03,0.44,0.06,0.9,0.06,1.38
		c0,4.08-0.75,4.7-3.25,4.7c-2.71,0-3.26-0.83-3.26-5.85c0-4.44,0.55-5.84,3.29-5.84c2.28,0,2.97,0.55,3.17,3.23H57.3z"/>
	<path class="st0" d="M66.48,36.18c0,1.82-0.96,2.96-3.37,2.96c-2.59,0-3.28-0.72-3.28-3.37h1.81c0,1.26,0.14,1.67,1.47,1.67
		c1.23,0,1.49-0.46,1.49-1.29c0-0.57-0.08-0.9-1.18-1.67l-1.03-0.72c-1.29-0.9-2.56-1.56-2.56-3.48c0-1.62,0.81-2.83,3.32-2.83
		c2.6,0,3.22,0.69,3.22,3.17H64.6c0-1.38-0.52-1.49-1.49-1.49c-1.09,0-1.42,0.43-1.42,1.16c0,0.52,0.15,0.87,1.56,1.79l1.16,0.77
		c1,0.66,1.92,1.52,2.04,2.7C66.47,35.76,66.48,35.98,66.48,36.18z"/>
</g>
<g>
	<path class="st0" d="M96.1,39.18h-5.35V27.26c0-0.38-0.19-0.56-0.38-0.56c-0.14,0-0.33,0.14-0.38,0.38l-3.43,12.11h-3.43
		l-3.61-11.97c-0.09-0.38-0.28-0.56-0.42-0.56c-0.19,0-0.38,0.28-0.38,0.75v11.78h-5.35V4.82h5.35l5.54,19.67
		c0.14,0.56,0.42,0.84,0.7,0.84c0.23,0,0.52-0.28,0.66-0.84l5.12-19.67h5.35V39.18z"/>
	<path class="st0" d="M115.82,39.14H99.25V4.82h16.57V9.8h-10.05c-0.61,0-1.17,0.66-1.17,1.22v9.15c0,0.56,0.47,1.17,1.08,1.17h8.26
		v5.35h-8.21c-0.66,0-1.13,0.56-1.13,1.27v4.65c0,0.52,0.28,1.17,1.08,1.17h10.14V39.14z"/>
	<path class="st0" d="M138.45,39.14h-5.35l-8.73-20.18c-0.09-0.19-0.19-0.28-0.28-0.28s-0.19,0.09-0.19,0.28v20.18h-5.35V4.87h5.35
		l8.68,20.37c0.05,0.14,0.19,0.23,0.28,0.23c0.09,0,0.23-0.09,0.23-0.23V4.87h5.35V39.14z"/>
	<path class="st0" d="M161.26,10.27c0,13-1.46,16.15-7.42,16.71v12.16h-5.35v-12.2c-5.87-0.61-7.32-3.99-7.32-16.66V4.82h5.35v5.49
		c0,10.51,1.31,11.36,4.6,11.36c3.43,0,4.74-0.7,4.74-11.36V4.82h5.4V10.27z"/>
</g>
</svg>
