<?xml version="1.0" encoding="utf-8"?>
<!-- Generator: Adobe Illustrator 24.3.1, SVG Export Plug-In . SVG Version: 6.00 Build 0)  -->
<svg version="1.1"
	 id="Layer_1" xmlns:cc="http://creativecommons.org/ns#" xmlns:dc="http://purl.org/dc/elements/1.1/" xmlns:rdf="http://www.w3.org/1999/02/22-rdf-syntax-ns#" xmlns:svg="http://www.w3.org/2000/svg"
	 xmlns="http://www.w3.org/2000/svg" xmlns:xlink="http://www.w3.org/1999/xlink" x="0px" y="0px" viewBox="0 0 334.55 355.25"
	 style="enable-background:new 0 0 334.55 355.25;" xml:space="preserve">
<style type="text/css">
	.st0{fill:#FFFFFF;}
</style>
<path class="st0" d="M315.93,3.77c-8,2.1-24.9,5.9-37.5,8.4c-32.1,6.3-37.2,8.2-51.5,18.8c-20.3,15.1-34.5,44.3-34.4,70.8
	c0.1,10.1,1.6,17.3,3.3,15.4c0.4-0.5,1.8-3.4,3-6.4c6.1-14.7,23.8-37.1,38.9-49.2c7.7-6.2,23.2-12.3,23.2-9.1
	c0,1.1-5.3,7.7-11.6,14.3c-5.9,6.3-7.9,8.9-19,25c-11.5,16.9-26.5,47.1-36.6,74c-9.8,26.1-17,46.9-21.8,62.5
	c-8.1,26.7-15.4,47.8-16.7,48.2c-1.6,0.6-6-13.7-15.2-49.2c-14.3-55.6-20.4-74.7-35-109.5c-10-23.7-23.2-42.7-50-71.8
	c-14.7-16.1-35.6-31.5-48.2-35.7c-8.2-2.8-8.9-1.4-2.7,5.5c29.2,32.9,46.1,57.3,64,92c15.1,29.5,25.5,58.8,44.4,126
	c4.8,17.2,15.4,61,18.8,78c3.8,18.9,8,37.4,9.1,40.3c0.4,0.9,1.9,2.1,3.4,2.5c3.4,0.9,19.8,0.9,23.3,0c5.2-1.5,6.2-5.6,13.4-52.8
	c4.8-31.9,8.9-51,17.1-79.5c13.9-48.6,28.7-84.2,37.7-90c1.3-0.8,7.7-2.4,14.4-3.5c26-4.3,46.9-15.8,61.7-34.1
	c9.9-12.2,12.5-21.2,15-51.2c1.3-15.9,2.1-20.4,5.1-29.9c1.9-6.2,3.2-11.8,3-12.5C333.83-0.73,332.23-0.53,315.93,3.77z"/>
</svg>
